<svg id="svg" version="1.1" xmlns="http://www.w3.org/2000/svg" xmlns:xlink="http://www.w3.org/1999/xlink" width="400" height="400" viewBox="0, 0, 400,400"><g id="svgg"><path id="path0" d="M99.433 80.452 C 96.774 80.978,95.021 82.198,93.187 84.800 L 92.200 86.200 92.200 200.200 L 92.200 314.200 93.332 315.868 C 94.968 318.278,97.045 319.567,100.048 320.033 C 104.867 320.783,173.529 320.329,175.200 319.537 C 177.082 318.645,178.517 317.310,179.655 315.392 L 180.600 313.800 180.697 280.400 C 180.750 262.030,180.886 246.606,180.998 246.124 L 181.203 245.248 200.702 245.043 C 223.370 244.805,227.686 244.480,240.800 242.025 C 250.377 240.232,260.676 236.875,268.324 233.052 C 273.270 230.580,280.276 226.323,281.200 225.228 C 281.310 225.097,282.860 223.771,284.644 222.280 C 287.379 219.994,290.622 216.619,293.666 212.886 C 299.851 205.305,305.271 192.528,306.853 181.800 C 310.085 159.889,307.611 139.935,299.715 124.226 C 298.934 122.672,297.778 120.648,297.147 119.728 C 296.516 118.808,296.000 117.863,296.000 117.628 C 296.000 117.393,295.859 117.200,295.686 117.200 C 295.514 117.200,295.075 116.705,294.711 116.100 C 290.360 108.863,279.182 99.103,269.372 93.975 C 267.817 93.162,266.197 92.310,265.772 92.082 C 265.348 91.854,264.325 91.382,263.500 91.034 C 262.675 90.685,261.415 90.151,260.700 89.847 C 259.985 89.543,258.770 89.075,258.000 88.807 C 257.230 88.539,256.240 88.166,255.800 87.980 C 248.950 85.073,232.583 81.800,219.600 80.741 C 212.522 80.164,102.234 79.899,99.433 80.452 M185.204 94.900 C 186.391 96.846,186.253 97.881,184.763 98.208 C 183.030 98.589,180.204 98.094,179.126 97.220 L 178.217 96.484 179.808 95.051 C 182.005 93.074,184.056 93.016,185.204 94.900 M148.060 99.852 C 149.608 100.191,156.400 108.019,156.400 109.464 C 156.400 109.722,156.550 109.993,156.732 110.067 C 157.185 110.248,161.629 116.929,162.940 119.397 C 166.647 126.379,156.099 138.450,148.046 136.439 C 147.251 136.240,145.700 135.874,144.600 135.624 C 138.619 134.268,134.022 131.382,133.215 128.477 C 132.303 125.195,133.182 106.309,134.344 104.200 C 135.532 102.044,143.463 98.866,146.200 99.449 C 146.640 99.543,147.477 99.724,148.060 99.852 M241.307 105.840 C 246.369 108.398,247.264 115.530,242.741 117.269 C 238.231 119.004,235.238 118.622,234.219 116.183 C 233.887 115.388,233.072 113.933,232.408 112.949 C 230.855 110.648,230.886 110.126,232.700 108.073 C 235.704 104.673,237.881 104.109,241.307 105.840 M200.736 117.028 C 204.398 118.855,205.040 120.778,203.481 125.254 C 202.044 129.381,195.200 130.763,195.200 126.926 C 195.200 126.632,194.858 125.628,194.440 124.696 C 192.887 121.232,192.765 120.462,193.511 118.871 C 194.769 116.185,197.600 115.463,200.736 117.028 M226.111 121.605 C 227.529 123.260,226.811 125.819,225.053 125.377 C 222.947 124.849,222.140 122.508,223.689 121.423 C 224.857 120.605,225.282 120.637,226.111 121.605 M113.410 125.444 C 114.953 126.454,116.264 133.611,115.253 135.501 C 113.693 138.416,110.365 138.235,107.665 135.088 C 103.728 130.498,103.706 130.300,106.710 126.500 C 108.240 124.564,111.326 124.078,113.410 125.444 M235.774 139.590 C 237.569 140.272,237.313 144.267,235.452 144.617 C 232.775 145.119,232.213 144.807,232.080 142.745 C 231.910 140.113,233.524 138.735,235.774 139.590 M270.094 141.649 C 271.984 143.887,272.800 145.294,272.800 146.316 C 272.800 147.059,269.175 150.994,267.184 152.411 C 265.769 153.419,263.795 153.415,261.694 152.400 C 260.784 151.960,259.862 151.600,259.647 151.600 C 257.522 151.600,257.189 146.358,259.097 142.952 C 260.747 140.008,267.984 139.151,270.094 141.649 M166.190 142.780 C 167.292 144.911,166.994 146.700,165.247 148.447 C 161.184 152.511,155.057 146.739,159.002 142.564 C 160.432 141.052,165.373 141.201,166.190 142.780 M207.972 144.061 C 214.499 146.170,216.918 149.465,219.165 159.306 C 221.598 169.965,215.587 180.177,205.827 181.965 C 203.341 182.421,180.950 182.586,179.833 182.157 C 179.173 181.904,178.815 144.518,179.467 143.867 C 179.953 143.380,206.422 143.561,207.972 144.061 M251.200 156.003 C 255.573 156.670,259.600 158.678,259.600 160.192 C 259.600 160.526,259.736 160.800,259.902 160.800 C 260.173 160.800,260.443 161.346,261.588 164.200 C 261.764 164.640,262.130 165.810,262.401 166.800 C 262.672 167.790,263.052 169.122,263.247 169.760 C 263.882 171.847,263.661 175.622,262.797 177.406 C 262.050 178.948,258.198 183.200,257.547 183.200 C 257.388 183.200,257.019 183.437,256.729 183.726 C 250.613 189.813,240.862 188.782,234.717 181.399 C 231.724 177.803,232.444 172.011,237.056 162.593 C 240.397 155.768,242.681 154.704,251.200 156.003 M130.343 160.298 C 133.928 162.989,134.568 167.928,131.700 170.767 C 125.489 176.916,120.219 177.441,117.702 172.164 C 116.587 169.825,119.312 160.478,121.315 159.774 C 124.407 158.687,128.515 158.926,130.343 160.298 M155.315 169.234 C 158.699 170.776,159.301 176.261,156.458 179.648 C 153.715 182.915,152.382 182.933,145.915 179.786 C 144.349 179.024,142.884 178.400,142.660 178.400 C 140.694 178.400,139.631 173.847,140.985 171.229 C 141.724 169.800,142.248 169.608,145.533 169.565 C 147.000 169.546,149.100 169.390,150.200 169.218 C 153.195 168.752,154.264 168.755,155.315 169.234 M282.410 181.026 C 283.121 182.897,282.899 183.439,281.188 184.004 C 279.151 184.676,278.541 184.215,279.281 182.561 C 280.333 180.207,281.821 179.477,282.410 181.026 M260.281 194.050 C 271.368 198.507,274.446 205.149,269.896 214.800 C 267.518 219.842,266.328 220.404,258.051 220.388 C 246.319 220.364,242.800 219.079,242.800 214.819 C 242.800 214.456,242.596 213.956,242.346 213.706 C 241.349 212.709,241.686 204.761,242.791 203.200 C 245.005 200.074,252.998 194.400,255.189 194.400 C 255.609 194.400,256.064 194.220,256.200 194.000 C 256.532 193.463,258.894 193.492,260.281 194.050 M184.000 194.925 C 187.526 196.581,189.252 205.270,186.511 207.562 C 183.036 210.468,179.463 211.204,177.062 209.509 C 173.484 206.983,172.614 205.542,173.553 203.695 C 173.926 202.963,174.699 201.146,175.212 199.800 C 176.450 196.547,177.713 194.435,178.517 194.276 C 179.802 194.021,182.842 194.381,184.000 194.925 M136.529 200.300 C 137.585 202.094,136.256 205.600,134.521 205.600 C 133.732 205.600,131.200 203.513,131.200 202.863 C 131.200 200.984,135.667 198.835,136.529 200.300 M111.495 201.812 C 113.269 203.054,113.415 206.438,111.667 205.796 C 111.374 205.688,110.744 205.599,110.267 205.598 C 109.443 205.596,106.800 203.503,106.800 202.852 C 106.800 201.732,110.280 200.961,111.495 201.812 M222.417 207.609 C 225.393 209.202,222.708 212.214,219.433 210.957 C 217.989 210.403,218.823 207.926,220.600 207.489 C 221.040 207.381,221.457 207.272,221.526 207.246 C 221.596 207.221,221.997 207.384,222.417 207.609 M171.962 214.512 C 173.448 217.194,172.215 219.623,169.068 220.214 C 166.544 220.687,166.212 220.440,166.096 217.996 C 165.973 215.377,166.045 215.251,168.579 213.649 C 170.729 212.291,170.733 212.292,171.962 214.512 M138.939 213.177 C 140.128 213.629,142.400 216.798,142.400 218.005 C 142.400 219.296,137.702 225.559,136.508 225.859 C 132.749 226.802,127.200 222.881,127.200 219.282 C 127.200 215.915,127.328 215.829,136.600 212.986 C 137.359 212.753,137.951 212.801,138.939 213.177 M205.099 218.265 C 208.892 222.273,208.894 222.748,205.154 230.095 C 204.959 230.477,204.800 230.995,204.800 231.248 C 204.800 233.210,199.962 233.824,197.714 232.146 C 196.107 230.946,195.614 229.539,194.739 223.655 C 194.096 219.334,194.702 217.956,197.972 216.300 C 201.297 214.616,201.769 214.746,205.099 218.265 M154.997 232.900 C 156.914 234.145,156.756 236.415,154.592 238.733 C 154.523 238.806,153.462 238.740,152.234 238.587 L 150.000 238.308 150.000 236.374 C 150.000 232.973,152.468 231.257,154.997 232.900 M134.733 248.053 C 135.721 248.979,136.004 249.523,135.824 250.151 C 135.690 250.618,135.473 251.495,135.340 252.100 C 135.108 253.162,135.011 253.200,132.503 253.200 C 130.006 253.200,129.916 253.166,130.148 252.300 C 130.281 251.805,130.392 250.926,130.395 250.347 C 130.399 249.428,132.464 246.796,133.176 246.802 C 133.299 246.803,134.000 247.366,134.733 248.053 M147.240 256.440 C 150.720 257.564,156.083 260.207,157.058 261.277 C 160.476 265.026,158.886 270.907,154.075 272.311 C 153.154 272.580,151.682 273.008,150.804 273.263 C 145.332 274.849,143.101 273.832,140.377 268.507 C 138.424 264.687,138.393 262.468,140.265 260.502 C 140.525 260.228,141.081 259.570,141.499 259.038 C 142.256 258.075,145.055 256.000,145.596 256.000 C 145.753 256.000,146.492 256.198,147.240 256.440 M127.305 262.100 C 127.797 262.375,128.290 262.700,128.400 262.821 C 128.510 262.943,129.272 263.547,130.094 264.164 C 133.558 266.765,133.810 268.514,131.437 273.466 C 129.707 277.077,128.955 277.607,125.611 277.574 C 118.118 277.501,116.670 276.366,116.464 270.408 L 116.327 266.473 117.876 264.936 C 118.727 264.091,119.959 263.154,120.612 262.854 C 121.265 262.553,122.070 262.159,122.400 261.977 C 123.326 261.468,126.308 261.542,127.305 262.100 M162.662 291.420 C 164.343 292.702,164.343 293.298,162.662 294.580 C 160.747 296.041,159.182 295.345,158.040 292.524 C 157.075 290.142,160.053 289.430,162.662 291.420 M126.134 294.998 C 129.248 296.299,130.034 298.631,128.180 301.062 C 127.075 302.510,125.155 302.890,123.938 301.900 C 119.958 298.661,121.711 293.150,126.134 294.998 M167.775 300.774 C 169.016 302.069,168.986 303.052,167.652 304.763 L 166.901 305.726 165.551 304.793 C 164.808 304.279,164.180 303.846,164.156 303.830 C 163.491 303.380,163.764 301.473,164.616 300.621 C 165.923 299.314,166.398 299.337,167.775 300.774 " stroke="none" fill="#040404" fill-rule="evenodd"></path><path id="path1" d="M30.400 0.291 C 29.630 0.382,28.829 0.624,28.620 0.829 C 28.411 1.033,27.837 1.200,27.344 1.200 C 26.851 1.200,26.336 1.380,26.200 1.600 C 26.064 1.820,25.513 2.000,24.976 2.000 C 24.439 2.000,24.000 2.180,24.000 2.400 C 24.000 2.620,23.640 2.800,23.200 2.800 C 22.760 2.800,22.400 2.980,22.400 3.200 C 22.400 3.420,22.040 3.600,21.600 3.600 C 21.160 3.600,20.800 3.780,20.800 4.000 C 20.800 4.220,20.440 4.400,20.000 4.400 C 19.560 4.400,19.200 4.580,19.200 4.800 C 19.200 5.020,18.912 5.200,18.560 5.200 C 18.209 5.200,17.417 5.740,16.800 6.400 C 16.183 7.060,15.483 7.600,15.243 7.600 C 14.218 7.600,7.600 14.206,7.600 15.229 C 7.600 15.476,7.060 16.183,6.400 16.800 C 5.740 17.417,5.200 18.209,5.200 18.560 C 5.200 18.912,5.020 19.200,4.800 19.200 C 4.580 19.200,4.400 19.560,4.400 20.000 C 4.400 20.440,4.220 20.800,4.000 20.800 C 3.780 20.800,3.600 21.160,3.600 21.600 C 3.600 22.040,3.420 22.400,3.200 22.400 C 2.980 22.400,2.800 22.760,2.800 23.200 C 2.800 23.640,2.620 24.000,2.400 24.000 C 2.180 24.000,2.000 24.439,2.000 24.976 C 2.000 25.513,1.820 26.064,1.600 26.200 C 1.380 26.336,1.200 26.851,1.200 27.344 C 1.200 27.837,0.975 28.465,0.700 28.740 C -0.036 29.476,-0.036 370.524,0.700 371.260 C 0.975 371.535,1.200 372.163,1.200 372.656 C 1.200 373.149,1.380 373.664,1.600 373.800 C 1.820 373.936,2.000 374.487,2.000 375.024 C 2.000 375.561,2.180 376.000,2.400 376.000 C 2.620 376.000,2.800 376.360,2.800 376.800 C 2.800 377.240,2.980 377.600,3.200 377.600 C 3.420 377.600,3.600 377.960,3.600 378.400 C 3.600 378.840,3.780 379.200,4.000 379.200 C 4.220 379.200,4.400 379.560,4.400 380.000 C 4.400 380.440,4.580 380.800,4.800 380.800 C 5.020 380.800,5.200 381.088,5.200 381.440 C 5.200 381.791,5.740 382.583,6.400 383.200 C 7.060 383.817,7.600 384.517,7.600 384.757 C 7.600 385.782,14.206 392.400,15.229 392.400 C 15.476 392.400,16.183 392.940,16.800 393.600 C 17.417 394.260,18.209 394.800,18.560 394.800 C 18.912 394.800,19.200 394.980,19.200 395.200 C 19.200 395.420,19.560 395.600,20.000 395.600 C 20.440 395.600,20.800 395.780,20.800 396.000 C 20.800 396.220,21.160 396.400,21.600 396.400 C 22.040 396.400,22.400 396.580,22.400 396.800 C 22.400 397.020,22.760 397.200,23.200 397.200 C 23.640 397.200,24.000 397.380,24.000 397.600 C 24.000 397.820,24.439 398.000,24.976 398.000 C 25.513 398.000,26.064 398.180,26.200 398.400 C 26.336 398.620,26.851 398.800,27.344 398.800 C 27.837 398.800,28.465 399.025,28.740 399.300 C 29.476 400.036,370.524 400.036,371.260 399.300 C 371.535 399.025,372.163 398.800,372.656 398.800 C 373.149 398.800,373.664 398.620,373.800 398.400 C 373.936 398.180,374.487 398.000,375.024 398.000 C 375.561 398.000,376.000 397.820,376.000 397.600 C 376.000 397.380,376.360 397.200,376.800 397.200 C 377.240 397.200,377.600 397.020,377.600 396.800 C 377.600 396.580,377.960 396.400,378.400 396.400 C 378.840 396.400,379.200 396.220,379.200 396.000 C 379.200 395.780,379.560 395.600,380.000 395.600 C 380.440 395.600,380.800 395.420,380.800 395.200 C 380.800 394.980,381.088 394.800,381.440 394.800 C 381.791 394.800,382.583 394.260,383.200 393.600 C 383.817 392.940,384.524 392.400,384.771 392.400 C 385.794 392.400,392.400 385.782,392.400 384.757 C 392.400 384.517,392.940 383.817,393.600 383.200 C 394.260 382.583,394.800 381.791,394.800 381.440 C 394.800 381.088,394.980 380.800,395.200 380.800 C 395.420 380.800,395.600 380.440,395.600 380.000 C 395.600 379.560,395.780 379.200,396.000 379.200 C 396.220 379.200,396.400 378.840,396.400 378.400 C 396.400 377.960,396.580 377.600,396.800 377.600 C 397.020 377.600,397.200 377.240,397.200 376.800 C 397.200 376.360,397.380 376.000,397.600 376.000 C 397.820 376.000,398.000 375.561,398.000 375.024 C 398.000 374.487,398.180 373.936,398.400 373.800 C 398.620 373.664,398.800 373.149,398.800 372.656 C 398.800 372.163,399.025 371.535,399.300 371.260 C 400.036 370.524,400.036 29.476,399.300 28.740 C 399.025 28.465,398.800 27.837,398.800 27.344 C 398.800 26.851,398.620 26.336,398.400 26.200 C 398.180 26.064,398.000 25.513,398.000 24.976 C 398.000 24.439,397.820 24.000,397.600 24.000 C 397.380 24.000,397.200 23.640,397.200 23.200 C 397.200 22.760,397.020 22.400,396.800 22.400 C 396.580 22.400,396.400 22.040,396.400 21.600 C 396.400 21.160,396.220 20.800,396.000 20.800 C 395.780 20.800,395.600 20.440,395.600 20.000 C 395.600 19.560,395.420 19.200,395.200 19.200 C 394.980 19.200,394.800 18.912,394.800 18.560 C 394.800 18.209,394.260 17.417,393.600 16.800 C 392.940 16.183,392.400 15.476,392.400 15.229 C 392.400 14.206,385.782 7.600,384.757 7.600 C 384.517 7.600,383.817 7.060,383.200 6.400 C 382.583 5.740,381.791 5.200,381.440 5.200 C 381.088 5.200,380.800 5.020,380.800 4.800 C 380.800 4.580,380.440 4.400,380.000 4.400 C 379.560 4.400,379.200 4.220,379.200 4.000 C 379.200 3.780,378.840 3.600,378.400 3.600 C 377.960 3.600,377.600 3.420,377.600 3.200 C 377.600 2.980,377.240 2.800,376.800 2.800 C 376.360 2.800,376.000 2.620,376.000 2.400 C 376.000 2.180,375.561 2.000,375.024 2.000 C 374.487 2.000,373.936 1.820,373.800 1.600 C 373.664 1.380,373.149 1.200,372.656 1.200 C 372.163 1.200,371.535 0.975,371.260 0.700 C 370.782 0.222,34.383 -0.182,30.400 0.291 M222.400 80.321 C 227.586 80.869,232.637 81.541,234.800 81.970 C 235.790 82.167,237.770 82.530,239.200 82.779 C 244.306 83.664,253.410 86.274,258.800 88.396 C 263.734 90.339,269.968 93.340,272.272 94.881 C 273.192 95.497,274.059 96.000,274.200 96.000 C 274.450 96.000,277.579 98.080,278.791 99.052 C 279.126 99.321,280.750 100.615,282.400 101.928 C 286.168 104.926,291.672 110.659,293.990 114.000 C 294.524 114.770,295.069 115.490,295.200 115.600 C 296.423 116.625,301.214 125.342,302.566 129.000 C 302.973 130.100,303.462 131.171,303.653 131.380 C 303.844 131.589,304.000 132.086,304.000 132.485 C 304.000 132.884,304.162 133.523,304.361 133.905 C 304.560 134.287,304.938 135.410,305.203 136.400 C 305.467 137.390,305.845 138.613,306.042 139.119 C 306.239 139.624,306.400 140.533,306.400 141.139 C 306.400 141.744,306.563 142.411,306.761 142.620 C 306.960 142.829,307.223 143.810,307.346 144.800 C 307.469 145.790,307.796 148.220,308.073 150.200 C 308.719 154.819,308.738 173.051,308.101 177.600 C 307.038 185.189,306.304 188.407,304.219 194.600 C 302.646 199.275,297.695 209.184,296.758 209.533 C 296.561 209.607,296.400 209.846,296.400 210.065 C 296.400 211.560,286.100 222.399,281.638 225.600 C 280.258 226.590,278.650 227.805,278.064 228.300 C 277.479 228.794,276.775 229.199,276.500 229.200 C 276.225 229.200,276.000 229.380,276.000 229.600 C 276.000 229.820,275.828 230.000,275.618 230.000 C 275.407 230.000,274.282 230.569,273.118 231.264 C 270.546 232.800,265.372 235.371,264.000 235.795 C 263.450 235.965,262.280 236.426,261.400 236.819 C 259.359 237.730,255.671 238.988,252.600 239.819 C 251.280 240.177,249.570 240.647,248.800 240.865 C 248.030 241.082,246.635 241.427,245.700 241.630 C 244.765 241.834,243.145 242.190,242.100 242.421 C 230.708 244.947,217.782 245.928,195.300 245.973 L 181.600 246.000 181.594 278.900 C 181.589 303.857,181.469 312.187,181.094 313.404 C 180.325 315.902,178.897 317.894,176.864 319.306 L 175.000 320.600 136.400 320.600 L 97.800 320.600 96.000 319.336 C 93.509 317.586,93.053 316.972,91.650 313.481 C 91.006 311.881,91.006 88.519,91.650 86.919 C 92.662 84.401,93.051 83.742,94.256 82.501 C 97.275 79.394,91.686 79.629,158.800 79.783 C 194.993 79.865,220.100 80.078,222.400 80.321 M180.394 95.466 L 179.127 96.533 180.063 97.052 C 181.058 97.604,185.601 97.807,185.599 97.300 C 185.586 94.769,182.510 93.686,180.394 95.466 M142.000 100.637 C 134.181 102.712,133.682 103.996,133.623 122.200 C 133.595 130.556,134.330 131.594,142.113 134.199 C 150.109 136.874,154.166 136.305,158.213 131.940 C 163.594 126.137,164.472 122.629,161.600 118.400 C 160.720 117.104,160.000 115.854,160.000 115.622 C 160.000 115.390,159.841 115.200,159.646 115.200 C 159.451 115.200,159.004 114.595,158.653 113.855 C 158.302 113.115,157.741 112.283,157.407 112.006 C 157.073 111.729,156.800 111.269,156.800 110.984 C 156.800 110.700,156.665 110.407,156.500 110.333 C 156.335 110.260,155.399 109.030,154.421 107.600 C 149.323 100.151,147.558 99.161,142.000 100.637 M233.991 107.571 C 231.560 109.977,231.560 109.966,233.861 114.164 C 235.981 118.034,236.067 118.076,240.200 117.273 C 244.055 116.523,244.486 116.019,244.511 112.239 C 244.550 106.141,238.258 103.349,233.991 107.571 M195.055 117.855 C 193.917 118.992,193.597 121.610,194.400 123.205 C 194.620 123.642,194.980 124.358,195.200 124.795 C 195.420 125.232,195.600 125.947,195.600 126.385 C 195.600 128.325,199.811 128.963,201.686 127.307 C 202.588 126.510,203.676 122.706,203.522 120.885 C 203.260 117.790,197.265 115.644,195.055 117.855 M224.100 121.865 C 223.299 122.188,223.523 123.760,224.454 124.341 C 225.668 125.099,226.402 123.912,225.757 122.233 C 225.513 121.597,225.029 121.490,224.100 121.865 M107.690 126.372 C 104.598 129.463,104.716 131.036,108.324 134.851 L 110.685 137.347 112.642 136.546 L 114.600 135.744 114.732 133.372 C 115.118 126.433,111.362 122.700,107.690 126.372 M233.280 140.480 C 233.016 140.744,232.800 141.644,232.800 142.480 C 232.800 144.188,234.458 144.685,235.771 143.371 C 237.042 142.101,236.311 140.000,234.600 140.000 C 234.138 140.000,233.544 140.216,233.280 140.480 M263.400 141.200 C 263.264 141.420,262.758 141.606,262.276 141.613 C 259.793 141.649,257.610 146.671,258.762 149.699 C 259.253 150.992,263.889 152.942,265.514 152.539 C 266.767 152.228,272.000 147.351,272.000 146.495 C 272.000 145.500,270.728 143.190,269.510 141.972 C 268.288 140.750,264.012 140.210,263.400 141.200 M159.269 143.032 C 156.813 145.811,160.647 150.749,163.765 148.822 C 165.997 147.442,166.571 146.238,165.987 144.154 L 165.496 142.400 162.648 142.415 C 160.631 142.426,159.645 142.606,159.269 143.032 M180.000 162.832 L 180.000 181.665 193.500 181.522 L 207.000 181.378 209.200 180.313 C 217.422 176.333,220.731 167.667,218.041 157.164 C 215.041 145.456,212.146 144.000,191.876 144.000 L 180.000 144.000 180.000 162.832 M241.806 156.911 C 237.725 159.423,232.010 175.171,233.806 178.955 C 236.800 185.265,245.586 188.773,251.495 186.019 C 261.324 181.437,265.339 174.486,261.957 167.905 C 261.761 167.523,261.600 166.846,261.600 166.400 C 261.600 165.954,261.392 165.187,261.138 164.695 C 260.167 162.818,260.000 162.393,260.000 161.805 C 260.000 161.472,259.865 161.199,259.700 161.199 C 259.535 161.198,259.043 160.665,258.607 160.014 C 256.733 157.217,244.868 155.026,241.806 156.911 M121.946 160.242 C 120.751 160.874,119.831 162.133,119.493 163.600 C 119.366 164.150,118.985 165.680,118.645 167.000 C 117.404 171.828,119.593 175.600,123.634 175.600 C 125.646 175.600,133.199 169.261,133.202 167.570 C 133.214 161.730,126.903 157.621,121.946 160.242 M149.400 170.000 C 148.740 170.168,146.940 170.329,145.400 170.359 C 142.264 170.419,141.987 170.537,141.292 172.119 C 140.198 174.607,141.405 177.997,143.386 178.000 C 143.598 178.000,145.231 178.713,147.013 179.584 C 152.238 182.136,153.223 182.144,155.621 179.656 C 157.506 177.700,157.600 177.498,157.600 175.396 C 157.600 170.491,154.775 168.632,149.400 170.000 M280.662 181.531 C 279.794 182.491,279.774 183.772,280.633 183.443 C 280.981 183.309,281.431 183.200,281.633 183.200 C 281.835 183.200,282.000 182.660,282.000 182.000 C 282.000 180.624,281.608 180.487,280.662 181.531 M256.400 194.664 C 252.656 195.352,244.509 201.096,243.007 204.106 C 242.310 205.503,242.147 212.196,242.800 212.600 C 243.020 212.736,243.200 213.270,243.200 213.786 C 243.200 215.029,244.794 217.981,245.800 218.603 C 247.100 219.406,261.048 220.171,263.836 219.593 C 268.460 218.633,272.935 208.922,271.040 203.960 C 269.094 198.864,261.115 193.797,256.400 194.664 M177.627 195.962 C 177.172 196.601,176.800 197.323,176.800 197.567 C 176.800 197.811,176.641 198.323,176.447 198.705 C 176.252 199.087,175.892 199.895,175.647 200.500 C 175.401 201.105,174.999 202.095,174.753 202.700 C 174.508 203.305,174.137 204.129,173.930 204.531 C 172.819 206.691,180.529 211.657,181.800 209.600 C 181.936 209.380,182.397 209.200,182.824 209.200 C 183.251 209.200,183.600 209.020,183.600 208.800 C 183.600 208.580,183.835 208.400,184.122 208.400 C 187.252 208.400,188.088 201.046,185.421 196.976 C 183.855 194.585,179.052 193.961,177.627 195.962 M132.979 201.385 C 131.757 202.607,131.826 203.009,133.481 204.285 L 134.718 205.239 135.620 203.973 C 137.429 201.432,135.157 199.206,132.979 201.385 M108.900 202.118 C 107.755 202.632,107.762 203.237,108.926 204.330 C 109.858 205.206,112.400 205.564,112.400 204.819 C 112.400 202.981,110.405 201.442,108.900 202.118 M219.776 208.953 C 219.447 210.263,219.818 210.800,221.052 210.800 C 223.551 210.800,223.752 208.323,221.273 208.076 C 220.229 207.971,219.987 208.113,219.776 208.953 M168.673 214.304 L 166.800 215.335 166.800 217.694 C 166.800 219.754,166.889 220.027,167.500 219.846 C 167.885 219.732,168.738 219.509,169.396 219.352 C 171.898 218.752,172.596 217.322,171.470 215.099 L 170.546 213.274 168.673 214.304 M135.200 214.006 C 134.870 214.203,133.285 214.760,131.678 215.245 C 127.751 216.428,126.825 218.047,128.197 221.331 C 128.766 222.692,129.281 223.053,132.600 224.408 C 136.208 225.882,138.475 224.468,141.487 218.864 C 142.888 216.257,137.893 212.397,135.200 214.006 M197.800 217.112 L 195.800 218.205 195.837 222.603 C 195.897 229.745,196.606 231.506,199.780 232.394 C 201.191 232.790,201.729 232.779,202.623 232.341 C 203.723 231.802,203.955 231.496,204.701 229.600 C 204.918 229.050,205.658 227.450,206.347 226.044 C 207.905 222.865,207.903 222.554,206.305 220.591 C 202.129 215.459,201.382 215.154,197.800 217.112 M151.896 233.500 C 151.267 234.156,150.732 235.287,150.570 236.300 L 150.298 238.000 152.249 237.995 C 154.034 237.991,154.276 237.872,155.100 236.601 C 156.267 234.799,156.250 234.686,154.627 233.447 C 152.956 232.173,153.171 232.169,151.896 233.500 M132.037 248.561 C 131.540 249.090,131.036 250.258,130.915 251.161 L 130.695 252.800 132.531 252.800 C 134.979 252.800,136.058 250.365,134.395 248.595 C 133.245 247.371,133.156 247.369,132.037 248.561 M144.926 257.089 C 142.507 257.531,138.838 263.273,139.626 265.383 C 141.680 270.882,143.661 273.166,146.400 273.191 C 153.579 273.258,157.690 270.669,157.754 266.041 C 157.806 262.269,157.292 261.529,153.275 259.599 C 151.544 258.768,150.768 258.432,148.600 257.578 C 147.409 257.108,145.911 256.909,144.926 257.089 M122.129 262.838 C 118.066 264.400,116.534 266.795,116.925 270.977 C 117.322 275.224,118.083 276.134,121.600 276.560 C 122.590 276.679,124.225 276.893,125.234 277.033 C 127.961 277.414,129.232 276.590,130.738 273.467 C 132.849 269.090,132.833 268.029,130.622 265.665 C 127.449 262.272,125.386 261.586,122.129 262.838 M158.535 292.100 C 159.393 294.497,160.919 295.284,162.332 294.059 C 163.834 292.756,162.155 290.801,159.535 290.800 L 158.069 290.800 158.535 292.100 M122.554 296.614 C 121.213 298.661,124.746 302.973,126.747 301.731 C 128.672 300.537,128.818 296.901,126.975 296.061 C 125.180 295.244,123.297 295.479,122.554 296.614 M165.075 301.117 C 164.064 302.235,164.250 303.339,165.583 304.126 C 166.753 304.818,166.772 304.814,167.459 303.766 C 168.726 301.832,166.584 299.450,165.075 301.117 " stroke="none" fill="#fbfbfb" fill-rule="evenodd"></path><path id="path2" d="M98.400 80.018 C 97.962 80.315,98.124 80.352,99.000 80.156 C 100.471 79.827,100.790 79.598,99.767 79.606 C 99.345 79.609,98.730 79.795,98.400 80.018 M206.833 79.745 C 206.925 79.824,209.790 79.978,213.200 80.085 C 216.725 80.197,218.537 80.149,217.400 79.976 C 215.389 79.668,206.522 79.475,206.833 79.745 M96.100 80.888 C 95.605 81.127,95.200 81.479,95.200 81.670 C 95.200 81.862,95.650 81.724,96.200 81.363 C 97.667 80.402,97.616 80.157,96.100 80.888 M222.833 80.550 C 222.925 80.632,224.080 80.800,225.400 80.923 C 226.978 81.070,227.389 81.035,226.600 80.820 C 225.366 80.485,222.536 80.282,222.833 80.550 M230.800 81.600 C 231.350 81.776,232.250 81.920,232.800 81.920 L 233.800 81.920 232.800 81.600 C 232.250 81.424,231.350 81.280,230.800 81.280 L 229.800 81.280 230.800 81.600 M235.800 82.400 C 236.240 82.589,236.870 82.744,237.200 82.744 C 237.578 82.744,237.504 82.617,237.000 82.400 C 236.560 82.211,235.930 82.056,235.600 82.056 C 235.222 82.056,235.296 82.183,235.800 82.400 M243.400 84.000 C 243.840 84.189,244.560 84.338,245.000 84.332 C 245.643 84.323,245.604 84.257,244.800 84.000 C 243.432 83.562,242.381 83.562,243.400 84.000 M246.600 84.800 C 247.040 84.989,247.670 85.144,248.000 85.144 C 248.378 85.144,248.304 85.017,247.800 84.800 C 247.360 84.611,246.730 84.456,246.400 84.456 C 246.022 84.456,246.096 84.583,246.600 84.800 M249.600 85.541 C 249.930 85.734,250.740 86.009,251.400 86.152 C 252.168 86.318,252.384 86.284,252.000 86.059 C 251.670 85.866,250.860 85.591,250.200 85.448 C 249.432 85.282,249.216 85.316,249.600 85.541 M254.544 87.078 C 254.908 87.442,258.914 88.819,259.092 88.642 C 259.174 88.560,258.647 88.276,257.920 88.011 C 255.732 87.212,254.276 86.810,254.544 87.078 M91.397 200.200 C 91.397 262.240,91.443 287.560,91.500 256.468 C 91.557 225.375,91.557 174.615,91.500 143.668 C 91.443 112.720,91.397 138.160,91.397 200.200 M180.200 95.254 C 178.738 96.538,178.916 97.641,180.576 97.586 C 180.809 97.578,180.579 97.338,180.063 97.052 L 179.127 96.533 180.419 95.445 C 182.311 93.853,183.904 94.111,185.084 96.200 C 185.580 97.080,185.990 97.602,185.993 97.359 C 186.035 94.543,182.481 93.251,180.200 95.254 M275.600 96.949 C 275.600 97.035,276.230 97.586,277.000 98.173 C 277.770 98.760,278.398 99.097,278.395 98.920 C 278.392 98.744,277.762 98.193,276.995 97.696 C 276.228 97.199,275.600 96.863,275.600 96.949 M182.305 97.883 C 182.802 97.979,183.522 97.975,183.905 97.875 C 184.287 97.775,183.880 97.696,183.000 97.701 C 182.120 97.705,181.807 97.787,182.305 97.883 M148.200 100.614 C 148.860 100.948,150.091 101.982,150.935 102.911 C 152.454 104.582,152.458 104.584,151.376 103.086 C 150.189 101.440,148.394 99.999,147.538 100.002 C 147.242 100.004,147.540 100.279,148.200 100.614 M283.726 103.382 C 285.141 104.582,287.694 107.057,289.400 108.882 C 291.476 111.102,291.857 111.419,290.552 109.840 C 288.469 107.321,282.049 101.200,281.490 101.200 C 281.306 101.200,282.312 102.182,283.726 103.382 M134.588 104.512 C 133.969 105.550,133.806 106.655,133.751 110.200 L 133.682 114.600 133.954 110.162 C 134.154 106.916,134.420 105.429,134.945 104.627 C 135.341 104.024,135.595 103.462,135.511 103.378 C 135.427 103.293,135.012 103.804,134.588 104.512 M152.800 104.961 C 152.800 105.343,155.176 108.800,155.438 108.800 C 155.548 108.800,155.061 107.945,154.354 106.900 C 152.788 104.583,152.800 104.597,152.800 104.961 M236.900 105.476 C 237.285 105.576,237.915 105.576,238.300 105.476 C 238.685 105.375,238.370 105.293,237.600 105.293 C 236.830 105.293,236.515 105.375,236.900 105.476 M241.800 106.657 C 243.837 108.464,244.587 108.991,243.802 108.063 C 243.366 107.548,242.647 106.941,242.204 106.714 C 241.762 106.487,241.580 106.462,241.800 106.657 M244.549 112.400 C 244.533 115.231,244.554 115.304,244.923 113.698 C 245.170 112.625,245.176 111.516,244.941 110.698 C 244.624 109.600,244.564 109.863,244.549 112.400 M231.632 110.353 C 231.599 110.924,233.110 113.600,233.465 113.600 C 233.575 113.600,233.313 113.015,232.883 112.300 C 232.452 111.585,232.002 110.730,231.882 110.400 C 231.714 109.940,231.656 109.929,231.632 110.353 M292.802 112.633 C 292.803 112.835,293.268 113.540,293.835 114.200 L 294.866 115.400 293.963 114.000 C 292.804 112.204,292.800 112.199,292.802 112.633 M158.413 113.456 C 158.431 113.944,159.557 115.376,159.761 115.171 C 159.855 115.077,159.587 114.575,159.166 114.056 C 158.745 113.536,158.406 113.266,158.413 113.456 M160.015 115.800 C 160.017 116.020,160.386 116.650,160.836 117.200 C 161.379 117.864,161.515 117.931,161.240 117.400 C 160.566 116.095,160.012 115.372,160.015 115.800 M234.420 115.800 C 234.416 116.695,235.884 118.080,236.634 117.889 C 237.357 117.704,237.354 117.690,236.593 117.646 C 236.149 117.621,235.478 117.105,235.103 116.500 C 234.728 115.895,234.421 115.580,234.420 115.800 M295.200 115.721 C 295.200 115.892,295.830 116.967,296.600 118.110 C 297.370 119.254,298.000 120.050,298.000 119.879 C 298.000 119.708,297.370 118.633,296.600 117.490 C 295.830 116.346,295.200 115.550,295.200 115.721 M196.900 116.676 C 197.285 116.776,197.915 116.776,198.300 116.676 C 198.685 116.575,198.370 116.493,197.600 116.493 C 196.830 116.493,196.515 116.575,196.900 116.676 M194.581 117.858 C 193.802 118.699,193.615 119.296,193.672 120.758 L 193.744 122.600 193.893 120.734 C 194.000 119.390,194.330 118.579,195.075 117.834 C 195.644 117.265,195.986 116.800,195.835 116.800 C 195.685 116.800,195.120 117.276,194.581 117.858 M200.400 117.620 C 201.787 118.561,202.578 118.835,201.600 118.036 C 201.050 117.586,200.420 117.217,200.200 117.215 C 199.980 117.213,200.070 117.396,200.400 117.620 M238.600 117.600 C 237.511 117.877,237.493 117.907,238.400 117.925 C 238.950 117.935,239.760 117.789,240.200 117.600 C 241.186 117.176,240.266 117.176,238.600 117.600 M133.353 122.600 C 133.353 125.240,133.418 126.268,133.497 124.884 C 133.575 123.501,133.574 121.341,133.495 120.084 C 133.416 118.828,133.352 119.960,133.353 122.600 M203.151 119.302 C 203.524 119.778,203.638 120.660,203.506 122.036 C 203.392 123.221,203.452 123.845,203.649 123.534 C 204.273 122.550,204.049 119.736,203.300 119.149 C 202.665 118.651,202.651 118.665,203.151 119.302 M163.309 122.800 C 163.309 123.790,163.387 124.195,163.482 123.700 C 163.578 123.205,163.578 122.395,163.482 121.900 C 163.387 121.405,163.309 121.810,163.309 122.800 M225.873 122.759 C 225.983 123.176,225.846 123.942,225.570 124.459 C 225.114 125.316,225.128 125.351,225.735 124.851 C 226.446 124.264,226.638 122.594,226.037 122.223 C 225.838 122.100,225.764 122.341,225.873 122.759 M301.273 126.675 C 301.979 128.335,302.494 128.788,301.971 127.290 C 301.724 126.580,301.358 125.897,301.158 125.774 C 300.958 125.650,301.009 126.056,301.273 126.675 M113.639 126.000 C 113.624 126.110,113.867 127.010,114.179 128.000 C 114.491 128.990,114.750 129.440,114.755 129.000 C 114.763 128.303,113.708 125.471,113.639 126.000 M160.985 128.500 C 160.368 129.435,160.120 129.989,160.432 129.731 C 161.033 129.234,162.564 126.800,162.276 126.800 C 162.183 126.800,161.602 127.565,160.985 128.500 M196.344 127.976 C 197.342 128.847,198.479 128.980,199.800 128.381 C 200.370 128.123,200.168 128.087,199.098 128.254 C 198.058 128.417,197.259 128.284,196.498 127.821 L 195.400 127.153 196.344 127.976 M104.987 130.040 C 104.841 130.502,104.888 131.048,105.094 131.254 C 105.324 131.484,105.467 131.164,105.467 130.413 C 105.467 128.984,105.351 128.894,104.987 130.040 M158.018 132.134 L 156.637 133.800 158.318 132.219 C 159.243 131.349,160.000 130.584,160.000 130.519 C 160.000 130.059,159.194 130.716,158.018 132.134 M114.914 133.400 C 114.917 134.500,114.995 134.903,115.087 134.295 C 115.179 133.686,115.177 132.786,115.082 132.295 C 114.987 131.803,114.911 132.300,114.914 133.400 M108.867 135.768 C 110.793 137.786,112.037 137.921,113.800 136.305 C 114.020 136.104,113.422 136.247,112.471 136.624 L 110.742 137.310 108.871 135.561 L 107.000 133.812 108.867 135.768 M155.330 134.430 C 155.094 134.666,154.203 135.108,153.350 135.412 C 152.452 135.732,152.137 135.971,152.600 135.980 C 153.040 135.989,154.120 135.552,155.000 135.010 C 155.880 134.468,156.411 134.019,156.180 134.012 C 155.949 134.006,155.567 134.193,155.330 134.430 M147.100 135.882 C 147.595 135.978,148.405 135.978,148.900 135.882 C 149.395 135.787,148.990 135.709,148.000 135.709 C 147.010 135.709,146.605 135.787,147.100 135.882 M232.880 140.480 C 232.616 140.744,232.400 141.734,232.400 142.680 L 232.400 144.400 233.920 144.400 C 235.364 144.400,236.400 143.853,236.400 143.091 C 236.400 142.900,236.117 143.026,235.771 143.371 C 234.458 144.685,232.800 144.188,232.800 142.480 C 232.800 141.644,233.016 140.744,233.280 140.480 C 233.544 140.216,233.670 140.000,233.560 140.000 C 233.450 140.000,233.144 140.216,232.880 140.480 M265.500 140.682 C 265.995 140.778,266.805 140.778,267.300 140.682 C 267.795 140.587,267.390 140.509,266.400 140.509 C 265.410 140.509,265.005 140.587,265.500 140.682 M161.091 142.289 C 161.801 142.377,163.061 142.379,163.891 142.292 C 164.721 142.205,164.140 142.133,162.600 142.131 C 161.060 142.129,160.381 142.200,161.091 142.289 M306.428 142.676 C 306.518 143.715,307.144 144.596,307.172 143.724 C 307.187 143.242,307.020 142.736,306.800 142.600 C 306.580 142.464,306.413 142.498,306.428 142.676 M158.232 145.015 C 158.092 145.573,158.121 146.286,158.296 146.600 C 158.499 146.964,158.629 146.597,158.656 145.584 C 158.704 143.747,158.589 143.593,158.232 145.015 M179.794 162.800 L 179.800 181.800 191.921 181.906 C 198.588 181.964,204.576 181.874,205.228 181.706 C 205.879 181.538,200.471 181.456,193.210 181.525 L 180.008 181.650 179.898 162.725 L 179.788 143.800 179.794 162.800 M205.600 144.400 C 206.150 144.576,207.050 144.720,207.600 144.720 L 208.600 144.720 207.600 144.400 C 207.050 144.224,206.150 144.080,205.600 144.080 L 204.600 144.080 205.600 144.400 M209.200 144.989 C 209.200 145.099,209.875 145.471,210.700 145.815 C 211.525 146.159,212.830 147.013,213.600 147.713 L 215.000 148.985 213.600 147.508 C 212.393 146.236,209.200 144.408,209.200 144.989 M258.231 146.935 C 257.999 148.480,258.449 150.800,258.980 150.800 C 259.090 150.800,258.998 150.321,258.775 149.735 C 258.553 149.149,258.488 147.889,258.631 146.935 C 258.774 145.981,258.801 145.200,258.691 145.200 C 258.581 145.200,258.374 145.981,258.231 146.935 M307.246 146.800 C 307.265 147.130,307.424 147.850,307.600 148.400 L 307.920 149.400 307.954 148.400 C 307.973 147.850,307.813 147.130,307.600 146.800 C 307.255 146.267,307.216 146.267,307.246 146.800 M268.175 150.900 L 267.000 152.200 268.300 151.025 C 269.015 150.379,269.600 149.794,269.600 149.725 C 269.600 149.416,269.270 149.688,268.175 150.900 M308.312 155.600 C 308.421 157.690,308.575 159.475,308.655 159.567 C 308.921 159.872,308.710 154.219,308.410 153.000 C 308.248 152.340,308.204 153.510,308.312 155.600 M245.091 156.289 C 245.801 156.377,247.061 156.379,247.891 156.292 C 248.721 156.205,248.140 156.133,246.600 156.131 C 245.060 156.129,244.381 156.200,245.091 156.289 M252.400 156.800 C 252.730 157.013,253.360 157.178,253.800 157.166 L 254.600 157.144 253.800 156.800 C 252.604 156.286,251.605 156.286,252.400 156.800 M258.000 158.983 C 258.000 159.143,258.360 159.731,258.800 160.291 C 259.240 160.850,259.600 161.177,259.600 161.017 C 259.600 160.857,259.240 160.269,258.800 159.709 C 258.360 159.150,258.000 158.823,258.000 158.983 M218.914 163.800 C 218.917 164.900,218.995 165.303,219.087 164.695 C 219.179 164.086,219.177 163.186,219.082 162.695 C 218.987 162.203,218.911 162.700,218.914 163.800 M119.000 164.000 C 118.850 164.473,118.817 164.950,118.927 165.060 C 119.037 165.170,119.250 164.873,119.400 164.400 C 119.550 163.927,119.583 163.450,119.473 163.340 C 119.363 163.230,119.150 163.527,119.000 164.000 M133.152 167.513 C 133.021 168.307,133.079 168.681,133.301 168.459 C 133.503 168.257,133.601 167.667,133.519 167.146 C 133.393 166.345,133.337 166.402,133.152 167.513 M218.449 168.200 C 218.416 168.640,218.296 169.450,218.183 170.000 L 217.977 171.000 218.406 170.019 C 218.642 169.479,218.761 168.669,218.672 168.219 C 218.513 167.421,218.507 167.421,218.449 168.200 M308.471 170.800 C 308.427 172.010,308.306 173.720,308.202 174.600 L 308.012 176.200 308.422 174.600 C 308.647 173.720,308.768 172.010,308.691 170.800 L 308.551 168.600 308.471 170.800 M262.480 169.800 C 262.480 170.240,262.624 171.050,262.800 171.600 C 263.054 172.392,263.120 172.433,263.120 171.800 C 263.120 171.360,262.976 170.550,262.800 170.000 C 262.546 169.208,262.480 169.167,262.480 169.800 M147.400 170.000 C 146.330 170.272,146.308 170.305,147.200 170.305 C 147.750 170.305,148.740 170.168,149.400 170.000 C 150.470 169.728,150.492 169.695,149.600 169.695 C 149.050 169.695,148.060 169.832,147.400 170.000 M233.829 171.829 C 233.681 172.415,233.638 172.972,233.732 173.066 C 233.827 173.160,234.024 172.758,234.171 172.171 C 234.319 171.585,234.362 171.028,234.268 170.934 C 234.173 170.840,233.976 171.242,233.829 171.829 M157.714 175.400 C 157.717 176.500,157.795 176.903,157.887 176.295 C 157.979 175.686,157.977 174.786,157.882 174.295 C 157.787 173.803,157.711 174.300,157.714 175.400 M215.200 176.000 C 214.730 176.660,214.436 177.200,214.546 177.200 C 214.656 177.200,215.130 176.660,215.600 176.000 C 216.070 175.340,216.364 174.800,216.254 174.800 C 216.144 174.800,215.670 175.340,215.200 176.000 M232.806 176.633 C 232.809 177.275,232.984 178.070,233.195 178.400 C 233.455 178.809,233.499 178.490,233.332 177.400 C 233.029 175.423,232.798 175.086,232.806 176.633 M140.999 176.798 C 141.134 177.017,141.640 177.399,142.122 177.647 L 143.000 178.099 142.117 177.249 C 141.195 176.363,140.575 176.113,140.999 176.798 M213.029 177.829 C 212.605 178.138,212.336 178.469,212.430 178.563 C 212.524 178.657,212.948 178.481,213.371 178.171 C 213.795 177.862,214.064 177.531,213.970 177.437 C 213.876 177.343,213.452 177.519,213.029 177.829 M155.375 180.100 L 154.200 181.400 155.500 180.225 C 156.215 179.579,156.800 178.994,156.800 178.925 C 156.800 178.616,156.470 178.888,155.375 180.100 M259.477 180.653 C 258.419 181.662,257.620 182.554,257.701 182.634 C 257.782 182.715,258.731 181.886,259.809 180.791 C 262.268 178.295,262.046 178.203,259.477 180.653 M307.649 179.200 C 307.616 179.530,307.489 180.250,307.367 180.800 C 307.175 181.664,307.207 181.703,307.599 181.088 C 307.848 180.697,307.975 179.977,307.881 179.488 C 307.786 179.000,307.682 178.870,307.649 179.200 M233.914 179.800 C 234.147 180.240,235.110 181.320,236.055 182.200 C 237.752 183.780,237.209 183.097,233.673 179.200 C 233.573 179.090,233.682 179.360,233.914 179.800 M151.307 181.675 C 151.938 182.075,153.497 182.091,153.737 181.700 C 153.838 181.535,153.221 181.391,152.367 181.381 C 151.473 181.370,151.023 181.494,151.307 181.675 M282.032 182.271 C 282.014 182.750,281.685 183.224,281.300 183.324 C 280.644 183.496,280.645 183.510,281.313 183.554 C 282.088 183.604,282.598 182.731,282.269 181.913 C 282.156 181.631,282.049 181.792,282.032 182.271 M238.367 184.145 C 238.900 184.801,240.400 185.793,240.400 185.489 C 240.400 185.413,239.815 184.922,239.100 184.399 C 238.296 183.810,238.016 183.713,238.367 184.145 M306.629 184.629 C 306.481 185.215,306.451 185.784,306.561 185.894 C 306.671 186.004,306.881 185.615,307.029 185.029 C 307.176 184.442,307.206 183.873,307.096 183.763 C 306.986 183.653,306.776 184.042,306.629 184.629 M252.400 185.600 C 251.190 186.239,250.341 186.771,250.513 186.781 C 250.938 186.807,254.800 184.836,254.800 184.593 C 254.800 184.326,254.855 184.303,252.400 185.600 M248.000 187.200 C 246.616 187.491,246.614 187.495,247.800 187.541 C 248.460 187.567,249.270 187.413,249.600 187.200 C 250.266 186.770,250.045 186.770,248.000 187.200 M256.400 194.361 C 255.770 194.539,256.437 194.643,258.200 194.643 C 259.963 194.643,260.630 194.539,260.000 194.361 C 259.450 194.207,258.640 194.080,258.200 194.080 C 257.760 194.080,256.950 194.207,256.400 194.361 M179.505 194.683 C 180.002 194.779,180.722 194.775,181.105 194.675 C 181.487 194.575,181.080 194.496,180.200 194.501 C 179.320 194.505,179.007 194.587,179.505 194.683 M183.003 195.205 C 183.137 195.422,183.494 195.600,183.795 195.600 C 184.096 195.600,184.715 196.074,185.171 196.654 C 185.627 197.234,186.000 197.535,186.000 197.324 C 186.000 197.112,185.595 196.575,185.100 196.129 C 184.100 195.229,182.613 194.573,183.003 195.205 M266.386 198.285 C 267.384 199.211,268.341 199.976,268.514 199.985 C 268.687 199.993,268.147 199.424,267.314 198.720 C 264.901 196.681,264.413 196.452,266.386 198.285 M247.722 199.029 L 246.600 200.058 247.900 199.154 C 248.615 198.657,249.200 198.193,249.200 198.125 C 249.200 197.809,248.758 198.080,247.722 199.029 M186.617 199.800 C 187.480 204.303,187.363 205.590,185.950 207.129 L 184.600 208.600 186.100 207.222 C 187.825 205.636,188.080 203.676,186.988 200.400 C 186.657 199.410,186.491 199.140,186.617 199.800 M244.581 201.700 L 243.000 203.400 244.700 201.819 C 246.281 200.348,246.584 200.000,246.281 200.000 C 246.216 200.000,245.451 200.765,244.581 201.700 M132.429 201.454 C 131.319 202.865,131.763 203.862,134.000 204.981 C 134.330 205.146,134.015 204.800,133.300 204.212 C 131.741 202.929,131.710 202.654,132.982 201.382 C 133.522 200.842,133.805 200.400,133.611 200.400 C 133.417 200.400,132.885 200.874,132.429 201.454 M136.071 201.330 C 136.460 202.236,136.448 202.631,136.013 203.330 C 135.519 204.123,135.530 204.152,136.136 203.651 C 136.963 202.967,136.984 201.988,136.193 200.976 C 135.634 200.260,135.624 200.287,136.071 201.330 M110.658 202.069 C 111.129 202.298,111.702 202.871,111.931 203.342 C 112.159 203.814,112.358 203.975,112.373 203.700 C 112.388 203.425,112.040 202.840,111.600 202.400 C 111.160 201.960,110.575 201.612,110.300 201.627 C 110.025 201.642,110.186 201.841,110.658 202.069 M107.632 202.830 C 107.614 203.177,108.095 203.897,108.700 204.430 L 109.800 205.400 108.951 204.400 C 108.484 203.850,108.003 203.130,107.882 202.800 C 107.695 202.286,107.659 202.291,107.632 202.830 M298.839 205.824 C 298.377 206.607,298.180 207.136,298.402 206.999 C 298.836 206.731,300.134 204.400,299.850 204.400 C 299.756 204.400,299.301 205.041,298.839 205.824 M111.200 205.200 L 109.800 205.495 111.076 205.547 C 111.778 205.576,112.464 205.420,112.600 205.200 C 112.736 204.980,112.792 204.824,112.724 204.853 C 112.656 204.882,111.970 205.038,111.200 205.200 M242.134 208.000 C 242.134 209.650,242.205 210.325,242.291 209.500 C 242.378 208.675,242.378 207.325,242.291 206.500 C 242.205 205.675,242.134 206.350,242.134 208.000 M173.920 206.233 C 174.376 207.104,175.548 208.228,175.718 207.957 C 175.772 207.871,175.291 207.260,174.649 206.600 C 173.857 205.784,173.623 205.667,173.920 206.233 M222.836 208.752 C 223.276 209.496,223.291 209.744,222.900 209.886 C 222.625 209.985,222.400 210.254,222.400 210.482 C 222.400 210.733,222.638 210.701,223.000 210.400 C 223.783 209.750,223.760 209.030,222.936 208.349 C 222.326 207.845,222.318 207.879,222.836 208.752 M270.400 211.319 C 270.400 211.457,270.027 212.522,269.571 213.685 C 269.116 214.848,268.909 215.620,269.111 215.400 C 269.670 214.793,270.864 211.530,270.617 211.283 C 270.498 211.164,270.400 211.180,270.400 211.319 M242.428 212.676 C 242.518 213.715,243.144 214.596,243.172 213.724 C 243.187 213.242,243.020 212.736,242.800 212.600 C 242.580 212.464,242.413 212.498,242.428 212.676 M137.200 213.492 C 138.047 213.591,139.153 214.158,140.000 214.928 L 141.400 216.200 140.022 214.700 C 138.885 213.463,138.394 213.211,137.222 213.264 L 135.800 213.328 137.200 213.492 M134.100 214.048 C 133.385 214.254,132.800 214.511,132.800 214.619 C 132.800 214.909,134.938 214.353,135.380 213.948 C 135.816 213.549,135.830 213.548,134.100 214.048 M170.800 213.650 C 170.800 213.998,172.037 216.400,172.217 216.400 C 172.304 216.400,172.261 216.085,172.121 215.700 C 171.833 214.906,170.800 213.303,170.800 213.650 M167.100 214.832 C 166.559 215.147,166.400 215.774,166.400 217.596 C 166.400 220.201,166.676 220.598,168.063 219.992 C 168.953 219.602,168.945 219.592,167.900 219.798 C 166.510 220.072,166.171 215.966,167.500 214.957 C 168.329 214.328,168.093 214.254,167.100 214.832 M243.465 215.928 C 243.570 216.329,244.108 217.184,244.661 217.828 L 245.666 219.000 244.833 217.738 C 244.375 217.044,244.000 216.290,244.000 216.062 C 244.000 215.834,243.837 215.546,243.637 215.423 C 243.438 215.300,243.360 215.527,243.465 215.928 M128.155 216.612 C 127.790 217.169,127.590 217.723,127.709 217.843 C 127.829 217.962,128.049 217.675,128.199 217.204 C 128.348 216.733,128.860 216.191,129.335 215.999 C 130.007 215.728,130.046 215.645,129.509 215.625 C 129.129 215.611,128.520 216.056,128.155 216.612 M197.928 216.612 C 196.898 217.149,195.948 217.760,195.818 217.971 C 195.688 218.182,196.428 217.881,197.463 217.302 C 198.498 216.724,199.988 216.125,200.773 215.971 C 202.133 215.705,202.143 215.691,201.000 215.665 C 200.340 215.650,198.957 216.076,197.928 216.612 M203.429 217.238 C 204.073 218.029,204.681 218.608,204.779 218.525 C 204.878 218.442,204.351 217.795,203.609 217.087 L 202.258 215.800 203.429 217.238 M288.283 219.458 C 287.009 220.691,286.029 221.763,286.106 221.839 C 286.183 221.916,287.310 220.904,288.610 219.590 C 291.598 216.571,291.364 216.477,288.283 219.458 M170.800 218.772 C 170.800 218.977,170.395 219.222,169.900 219.318 C 169.038 219.484,169.036 219.493,169.851 219.546 C 170.319 219.575,170.926 219.330,171.200 219.000 C 171.544 218.585,171.559 218.400,171.249 218.400 C 171.002 218.400,170.800 218.567,170.800 218.772 M195.342 222.200 C 195.341 224.180,195.408 225.040,195.492 224.112 C 195.576 223.184,195.577 221.564,195.495 220.512 C 195.412 219.460,195.343 220.220,195.342 222.200 M246.358 219.320 C 246.535 219.495,247.921 219.584,249.440 219.516 L 252.200 219.392 249.118 219.196 C 247.423 219.088,246.181 219.144,246.358 219.320 M205.994 220.203 C 207.587 222.121,207.721 222.245,207.286 221.396 C 207.059 220.953,206.452 220.234,205.937 219.798 C 205.033 219.034,205.035 219.048,205.994 220.203 M253.900 219.889 C 254.615 219.978,255.785 219.978,256.500 219.889 C 257.215 219.801,256.630 219.728,255.200 219.728 C 253.770 219.728,253.185 219.801,253.900 219.889 M259.305 220.287 C 259.914 220.379,260.814 220.377,261.305 220.282 C 261.797 220.187,261.300 220.111,260.200 220.114 C 259.100 220.117,258.697 220.195,259.305 220.287 M127.633 220.931 C 127.598 221.706,129.643 224.000,130.369 224.000 C 131.122 224.000,130.835 223.593,129.806 223.202 C 129.260 222.995,128.554 222.234,128.239 221.512 C 127.867 220.662,127.654 220.457,127.633 220.931 M134.200 225.214 C 135.232 225.639,136.700 225.685,136.939 225.299 C 137.041 225.133,136.287 224.972,135.263 224.941 C 133.946 224.901,133.634 224.981,134.200 225.214 M205.829 226.861 C 205.483 227.555,205.201 228.320,205.202 228.561 C 205.205 229.003,206.014 227.602,206.509 226.300 C 206.949 225.143,206.503 225.511,205.829 226.861 M195.858 228.000 C 196.175 229.725,196.402 230.051,196.394 228.767 C 196.391 228.235,196.211 227.530,195.994 227.200 C 195.718 226.778,195.677 227.015,195.858 228.000 M203.783 231.628 C 203.637 231.863,203.132 232.212,202.659 232.403 C 202.073 232.639,202.003 232.757,202.438 232.775 C 202.789 232.789,203.402 232.440,203.800 232.000 C 204.198 231.560,204.417 231.200,204.286 231.200 C 204.154 231.200,203.928 231.393,203.783 231.628 M270.465 232.392 C 268.802 233.320,268.507 233.602,269.460 233.351 C 270.137 233.174,272.462 231.599,272.000 231.632 C 271.890 231.640,271.199 231.981,270.465 232.392 M150.256 235.684 C 150.121 236.188,150.027 236.960,150.046 237.400 C 150.065 237.840,150.245 237.498,150.446 236.640 C 150.836 234.978,150.670 234.140,150.256 235.684 M154.948 236.781 C 154.396 237.715,153.912 237.995,152.625 238.125 L 151.000 238.288 152.719 238.244 C 154.166 238.207,157.265 235.600,155.862 235.600 C 155.743 235.600,155.331 236.131,154.948 236.781 M242.800 242.000 C 241.976 242.264,241.941 242.326,242.600 242.354 C 243.040 242.373,243.670 242.213,244.000 242.000 C 244.701 241.547,244.214 241.547,242.800 242.000 M238.800 242.800 L 237.800 243.120 238.800 243.154 C 239.350 243.173,240.070 243.013,240.400 242.800 C 241.164 242.306,240.342 242.306,238.800 242.800 M233.800 243.600 L 232.200 243.886 233.600 243.915 C 234.370 243.931,235.360 243.789,235.800 243.600 C 236.743 243.195,236.062 243.195,233.800 243.600 M228.000 244.400 L 226.200 244.680 227.800 244.700 C 228.680 244.711,229.850 244.576,230.400 244.400 C 231.663 243.995,230.602 243.995,228.000 244.400 M218.800 245.200 L 215.400 245.451 218.600 245.478 C 220.360 245.493,222.340 245.368,223.000 245.200 C 224.469 244.826,223.863 244.826,218.800 245.200 M181.384 246.100 C 181.279 246.375,181.241 261.450,181.299 279.600 L 181.405 312.600 181.502 279.305 L 181.600 246.010 196.500 245.900 L 211.400 245.790 196.487 245.695 C 184.855 245.621,181.533 245.710,181.384 246.100 M131.831 248.368 C 131.215 249.010,130.808 249.775,130.924 250.068 C 131.079 250.455,131.145 250.429,131.168 249.970 C 131.186 249.623,131.665 248.903,132.233 248.370 L 133.265 247.400 134.433 248.706 C 135.075 249.425,135.600 249.863,135.600 249.681 C 135.600 249.330,133.499 247.200,133.153 247.200 C 133.041 247.200,132.446 247.726,131.831 248.368 M130.561 252.000 C 130.596 252.891,130.794 253.014,132.385 253.127 C 134.247 253.260,135.237 252.582,135.168 251.224 C 135.151 250.881,134.956 251.095,134.735 251.700 C 134.181 253.217,130.959 253.376,130.688 251.900 C 130.544 251.117,130.528 251.130,130.561 252.000 M144.865 256.752 C 144.524 256.967,144.961 257.090,146.065 257.088 C 147.321 257.087,147.579 256.999,147.000 256.771 C 145.933 256.351,145.503 256.347,144.865 256.752 M142.200 258.800 C 141.341 259.680,140.809 260.385,141.019 260.366 C 141.386 260.334,144.265 257.200,143.928 257.200 C 143.837 257.200,143.059 257.920,142.200 258.800 M155.200 260.511 C 155.200 260.587,155.785 261.078,156.500 261.601 C 157.304 262.190,157.584 262.287,157.233 261.855 C 156.700 261.199,155.200 260.207,155.200 260.511 M130.057 265.161 C 132.406 267.445,132.502 267.616,132.268 269.075 C 132.100 270.118,132.144 270.410,132.405 270.000 C 133.368 268.490,131.058 264.622,128.317 263.156 C 127.923 262.945,128.706 263.847,130.057 265.161 M157.774 265.901 C 157.759 267.610,157.877 268.589,158.046 268.159 C 158.437 267.163,158.469 263.926,158.094 263.342 C 157.932 263.090,157.788 264.242,157.774 265.901 M116.520 269.600 C 116.520 270.810,116.595 271.305,116.687 270.700 C 116.778 270.095,116.778 269.105,116.687 268.500 C 116.595 267.895,116.520 268.390,116.520 269.600 M156.200 270.650 C 155.481 271.262,155.334 271.505,155.833 271.257 C 156.566 270.893,157.941 269.576,157.549 269.614 C 157.467 269.622,156.860 270.088,156.200 270.650 M145.705 273.487 C 146.314 273.579,147.214 273.577,147.705 273.482 C 148.197 273.387,147.700 273.311,146.600 273.314 C 145.500 273.317,145.097 273.395,145.705 273.487 M120.433 276.549 C 120.525 276.631,121.500 276.801,122.600 276.928 C 123.949 277.084,124.274 277.049,123.600 276.820 C 122.601 276.480,120.118 276.268,120.433 276.549 M162.790 292.263 C 163.016 292.375,163.200 292.707,163.200 293.000 C 163.200 293.293,163.016 293.625,162.790 293.737 C 162.565 293.849,162.610 293.894,162.890 293.837 C 163.171 293.780,163.400 293.403,163.400 293.000 C 163.400 292.597,163.171 292.220,162.890 292.163 C 162.610 292.107,162.565 292.151,162.790 292.263 M124.000 295.117 C 123.158 295.380,122.000 296.442,122.000 296.951 C 122.000 297.186,122.273 296.989,122.606 296.513 C 123.004 295.945,123.725 295.605,124.706 295.524 C 125.766 295.436,125.968 295.332,125.400 295.165 C 124.960 295.036,124.330 295.014,124.000 295.117 M128.200 298.600 C 128.200 299.548,128.332 300.116,128.494 299.862 C 128.879 299.256,128.884 297.299,128.500 297.062 C 128.335 296.960,128.200 297.652,128.200 298.600 M164.827 300.971 C 164.325 301.506,164.009 302.181,164.126 302.471 C 164.276 302.848,164.346 302.817,164.368 302.362 C 164.414 301.447,165.860 300.261,166.589 300.540 C 167.772 300.994,168.189 302.644,167.433 303.884 L 166.753 305.000 167.576 304.056 C 169.534 301.812,166.857 298.810,164.827 300.971 M124.400 301.800 C 124.950 302.114,125.670 302.371,126.000 302.370 C 126.330 302.369,125.994 302.106,125.254 301.784 C 123.551 301.045,123.094 301.053,124.400 301.800 M117.700 320.700 C 127.985 320.759,144.815 320.759,155.100 320.700 C 165.385 320.640,156.970 320.592,136.400 320.592 C 115.830 320.592,107.415 320.640,117.700 320.700 " stroke="none" fill="#a1a1a1" fill-rule="evenodd"></path><path id="path3" d="M208.300 80.295 C 209.455 80.376,211.345 80.376,212.500 80.295 C 213.655 80.214,212.710 80.148,210.400 80.148 C 208.090 80.148,207.145 80.214,208.300 80.295 M217.111 80.693 C 218.051 80.778,219.491 80.777,220.311 80.691 C 221.130 80.605,220.360 80.536,218.600 80.537 C 216.840 80.539,216.170 80.609,217.111 80.693 M95.800 81.600 C 95.140 82.037,94.780 82.392,95.000 82.388 C 95.401 82.382,97.576 80.823,97.200 80.812 C 97.090 80.808,96.460 81.163,95.800 81.600 M222.900 81.076 C 223.285 81.176,223.915 81.176,224.300 81.076 C 224.685 80.975,224.370 80.893,223.600 80.893 C 222.830 80.893,222.515 80.975,222.900 81.076 M227.105 81.483 C 227.602 81.579,228.322 81.575,228.705 81.475 C 229.087 81.375,228.680 81.296,227.800 81.301 C 226.920 81.305,226.607 81.387,227.105 81.483 M232.033 82.144 C 232.125 82.223,233.100 82.391,234.200 82.518 C 235.487 82.667,235.915 82.626,235.400 82.403 C 234.636 82.072,231.686 81.845,232.033 82.144 M93.753 83.300 C 92.402 85.592,92.292 85.829,92.965 85.000 C 93.323 84.560,93.880 83.885,94.204 83.500 C 94.527 83.115,94.625 82.800,94.420 82.800 C 94.215 82.800,93.915 83.025,93.753 83.300 M237.800 83.200 C 239.492 83.631,240.944 83.631,239.600 83.200 C 239.050 83.024,238.150 82.883,237.600 82.887 C 236.702 82.894,236.722 82.926,237.800 83.200 M241.233 83.744 C 241.325 83.823,241.940 84.008,242.600 84.156 C 243.476 84.352,243.638 84.315,243.200 84.018 C 242.660 83.653,240.832 83.398,241.233 83.744 M244.433 84.544 C 244.525 84.623,245.140 84.808,245.800 84.956 C 246.676 85.152,246.838 85.115,246.400 84.818 C 245.860 84.453,244.032 84.198,244.433 84.544 M91.850 87.650 C 91.509 89.353,91.587 312.424,91.928 313.285 C 92.078 313.662,92.200 262.767,92.200 200.185 C 92.200 137.603,92.178 86.400,92.150 86.400 C 92.123 86.400,91.988 86.963,91.850 87.650 M266.400 92.364 C 266.950 92.814,267.580 93.183,267.800 93.185 C 268.228 93.188,267.505 92.634,266.200 91.960 C 265.669 91.685,265.736 91.821,266.400 92.364 M180.254 94.633 C 179.623 95.187,179.188 95.721,179.286 95.819 C 179.383 95.917,179.886 95.548,180.401 94.998 C 181.443 93.889,183.815 93.621,184.801 94.500 C 185.278 94.925,185.282 94.896,184.832 94.300 C 184.026 93.235,181.646 93.409,180.254 94.633 M273.574 96.324 C 274.109 96.759,275.099 97.419,275.774 97.791 L 277.000 98.467 276.026 97.676 C 275.491 97.241,274.501 96.581,273.826 96.209 L 272.600 95.533 273.574 96.324 M178.400 96.391 C 178.400 96.977,180.299 98.106,180.887 97.869 C 181.209 97.740,181.139 97.651,180.700 97.632 C 180.315 97.614,179.640 97.240,179.200 96.800 C 178.760 96.360,178.400 96.176,178.400 96.391 M182.300 98.282 C 182.795 98.378,183.605 98.378,184.100 98.282 C 184.595 98.187,184.190 98.109,183.200 98.109 C 182.210 98.109,181.805 98.187,182.300 98.282 M277.200 98.533 C 277.200 98.627,278.235 99.481,279.500 100.430 C 280.765 101.379,281.540 101.836,281.223 101.444 C 280.627 100.709,277.200 98.229,277.200 98.533 M144.200 99.600 C 143.245 99.843,143.491 99.909,145.400 99.925 C 147.079 99.938,147.560 99.840,147.000 99.600 C 146.058 99.195,145.790 99.195,144.200 99.600 M149.597 101.100 C 150.263 101.705,151.300 102.750,151.903 103.422 C 152.507 104.094,152.736 104.274,152.413 103.822 C 151.438 102.457,149.060 100.000,148.713 100.000 C 148.534 100.000,148.932 100.495,149.597 101.100 M284.400 104.229 C 284.400 104.354,284.637 104.669,284.927 104.929 C 285.216 105.188,286.341 106.209,287.427 107.198 C 289.137 108.757,289.082 108.663,287.013 106.498 C 284.620 103.995,284.400 103.804,284.400 104.229 M236.900 105.076 C 237.285 105.176,237.915 105.176,238.300 105.076 C 238.685 104.975,238.370 104.893,237.600 104.893 C 236.830 104.893,236.515 104.975,236.900 105.076 M154.416 106.963 C 156.195 109.440,156.906 109.879,155.257 107.482 C 154.560 106.469,153.778 105.510,153.520 105.350 C 153.261 105.191,153.665 105.916,154.416 106.963 M231.467 109.467 C 230.937 109.996,231.220 111.193,232.223 112.672 C 233.721 114.879,233.900 114.876,232.634 112.665 C 232.019 111.592,231.614 110.389,231.725 109.965 C 231.939 109.145,231.888 109.046,231.467 109.467 M290.400 110.600 C 291.146 111.370,291.847 112.000,291.957 112.000 C 292.067 112.000,291.546 111.370,290.800 110.600 C 290.054 109.830,289.353 109.200,289.243 109.200 C 289.133 109.200,289.654 109.830,290.400 110.600 M245.000 112.200 C 245.000 113.588,245.132 114.516,245.294 114.262 C 245.456 114.008,245.588 113.080,245.588 112.200 C 245.588 111.320,245.456 110.392,245.294 110.138 C 245.132 109.884,245.000 110.812,245.000 112.200 M133.337 113.000 C 133.339 114.760,133.409 115.430,133.493 114.489 C 133.578 113.549,133.577 112.109,133.491 111.289 C 133.405 110.470,133.336 111.240,133.337 113.000 M156.800 110.119 C 156.800 110.477,161.493 117.596,162.127 118.200 C 162.650 118.698,161.687 117.133,158.933 113.004 C 157.760 111.246,156.800 109.947,156.800 110.119 M132.959 122.000 C 132.959 125.190,133.021 126.495,133.097 124.900 C 133.173 123.305,133.173 120.695,133.097 119.100 C 133.021 117.505,132.959 118.810,132.959 122.000 M194.522 117.366 C 193.905 117.897,193.490 118.396,193.600 118.474 C 193.710 118.552,194.318 118.117,194.950 117.508 C 196.365 116.145,196.059 116.043,194.522 117.366 M200.800 117.347 C 200.800 117.428,201.565 117.979,202.500 118.572 L 204.200 119.651 202.800 118.436 C 201.540 117.343,200.800 116.940,200.800 117.347 M240.600 117.600 C 240.096 117.817,240.022 117.944,240.400 117.944 C 240.730 117.944,241.360 117.789,241.800 117.600 C 242.304 117.383,242.378 117.256,242.000 117.256 C 241.670 117.256,241.040 117.411,240.600 117.600 M296.015 117.800 C 296.017 118.020,296.386 118.650,296.836 119.200 C 297.379 119.864,297.515 119.931,297.240 119.400 C 296.566 118.095,296.012 117.372,296.015 117.800 M236.700 118.282 C 237.195 118.378,238.005 118.378,238.500 118.282 C 238.995 118.187,238.590 118.109,237.600 118.109 C 236.610 118.109,236.205 118.187,236.700 118.282 M193.056 119.800 C 192.929 120.129,192.979 120.804,193.166 121.300 C 193.454 122.060,193.508 121.967,193.513 120.700 C 193.521 119.077,193.414 118.866,193.056 119.800 M204.093 121.200 C 204.093 121.970,204.175 122.285,204.276 121.900 C 204.376 121.515,204.376 120.885,204.276 120.500 C 204.175 120.115,204.093 120.430,204.093 121.200 M223.280 121.680 C 223.016 121.944,222.821 122.529,222.846 122.980 C 222.892 123.783,222.897 123.784,223.089 123.000 C 223.198 122.560,223.469 121.975,223.692 121.700 C 224.210 121.062,223.912 121.048,223.280 121.680 M226.454 123.280 C 226.420 124.225,226.147 124.908,225.700 125.168 C 225.041 125.552,225.041 125.576,225.692 125.588 C 226.471 125.602,226.963 124.193,226.688 122.741 C 226.566 122.100,226.492 122.273,226.454 123.280 M107.170 125.900 L 106.200 127.000 107.400 126.000 C 108.060 125.450,108.675 124.955,108.767 124.900 C 108.858 124.845,108.755 124.800,108.536 124.800 C 108.318 124.800,107.703 125.295,107.170 125.900 M201.926 127.288 C 201.335 127.899,200.988 128.400,201.156 128.400 C 201.535 128.400,203.399 126.445,203.168 126.289 C 203.076 126.226,202.516 126.676,201.926 127.288 M161.199 128.900 C 160.610 129.704,160.513 129.984,160.945 129.633 C 161.601 129.100,162.593 127.600,162.289 127.600 C 162.213 127.600,161.722 128.185,161.199 128.900 M301.628 128.092 C 301.582 128.565,302.886 131.648,303.058 131.475 C 303.145 131.388,302.866 130.525,302.437 129.558 C 302.008 128.591,301.644 127.931,301.628 128.092 M115.083 131.600 C 115.204 133.470,115.370 135.075,115.451 135.167 C 115.722 135.470,115.547 131.832,115.202 130.000 C 114.957 128.692,114.924 129.130,115.083 131.600 M196.663 128.900 C 196.899 129.285,199.256 129.279,199.865 128.892 C 200.121 128.729,199.464 128.597,198.405 128.598 C 197.346 128.599,196.562 128.735,196.663 128.900 M104.667 129.467 C 104.305 129.828,104.328 131.108,104.700 131.338 C 104.865 131.440,105.000 131.001,105.000 130.362 C 105.000 129.723,104.985 129.200,104.967 129.200 C 104.948 129.200,104.813 129.320,104.667 129.467 M134.800 131.000 C 135.546 131.770,136.247 132.400,136.357 132.400 C 136.467 132.400,135.946 131.770,135.200 131.000 C 134.454 130.230,133.753 129.600,133.643 129.600 C 133.533 129.600,134.054 130.230,134.800 131.000 M158.581 132.051 C 157.712 132.959,156.200 134.219,155.222 134.851 C 154.244 135.483,153.632 136.000,153.862 136.000 C 154.489 136.000,157.192 133.913,158.981 132.048 C 159.851 131.142,160.472 130.400,160.362 130.400 C 160.252 130.400,159.451 131.143,158.581 132.051 M105.899 133.000 C 106.354 133.660,107.323 134.740,108.052 135.400 C 109.030 136.287,108.919 136.078,107.626 134.600 C 105.266 131.902,104.920 131.582,105.899 133.000 M137.000 132.756 C 137.220 132.977,138.120 133.457,139.000 133.821 C 141.090 134.687,140.513 134.101,138.305 133.115 C 137.367 132.696,136.780 132.535,137.000 132.756 M144.200 135.600 C 144.640 135.789,145.270 135.944,145.600 135.944 C 145.978 135.944,145.904 135.817,145.400 135.600 C 144.960 135.411,144.330 135.256,144.000 135.256 C 143.622 135.256,143.696 135.383,144.200 135.600 M148.200 136.427 C 149.181 136.815,151.557 136.840,152.483 136.472 C 152.859 136.322,151.869 136.180,150.283 136.155 C 148.501 136.127,147.706 136.231,148.200 136.427 M234.000 139.284 C 234.110 139.393,234.826 139.693,235.591 139.951 C 236.356 140.210,236.806 140.250,236.591 140.039 C 236.376 139.829,235.660 139.529,235.000 139.372 C 234.340 139.216,233.890 139.176,234.000 139.284 M232.637 140.359 C 231.195 141.953,231.913 144.594,233.800 144.634 L 235.400 144.668 233.900 144.511 C 232.176 144.330,231.680 141.859,233.062 140.331 C 233.426 139.929,233.634 139.600,233.524 139.600 C 233.414 139.600,233.015 139.942,232.637 140.359 M265.500 140.282 C 265.995 140.378,266.805 140.378,267.300 140.282 C 267.795 140.187,267.390 140.109,266.400 140.109 C 265.410 140.109,265.005 140.187,265.500 140.282 M262.400 140.818 C 261.962 141.115,262.124 141.152,263.000 140.956 C 264.471 140.627,264.790 140.398,263.767 140.406 C 263.345 140.409,262.730 140.595,262.400 140.818 M268.965 140.925 C 269.361 141.214,270.041 141.889,270.477 142.425 C 270.913 142.961,271.137 143.130,270.975 142.800 C 270.514 141.859,269.103 140.400,268.654 140.400 C 268.430 140.400,268.570 140.636,268.965 140.925 M259.021 143.024 C 258.652 143.588,258.406 144.201,258.475 144.386 C 258.544 144.571,258.911 144.110,259.292 143.362 C 260.109 141.753,259.968 141.578,259.021 143.024 M166.509 145.200 C 166.509 146.190,166.587 146.595,166.682 146.100 C 166.778 145.605,166.778 144.795,166.682 144.300 C 166.587 143.805,166.509 144.210,166.509 145.200 M179.383 144.100 C 179.278 144.375,179.239 153.060,179.296 163.400 L 179.400 182.200 179.600 162.900 C 179.710 152.285,179.749 143.600,179.687 143.600 C 179.626 143.600,179.489 143.825,179.383 144.100 M203.800 143.798 C 204.818 144.143,208.062 144.285,207.554 143.963 C 207.249 143.770,206.190 143.624,205.200 143.638 C 204.210 143.652,203.580 143.724,203.800 143.798 M157.843 144.633 C 157.508 145.505,157.538 146.715,157.900 146.937 C 158.065 147.038,158.209 146.418,158.219 145.560 C 158.241 143.826,158.195 143.714,157.843 144.633 M272.237 145.803 C 272.471 146.739,272.158 147.233,269.753 149.714 C 268.239 151.276,267.328 152.306,267.728 152.004 C 271.241 149.355,273.628 145.759,272.384 144.990 C 272.113 144.822,272.061 145.105,272.237 145.803 M306.828 146.433 C 306.844 147.185,307.012 148.160,307.203 148.600 C 307.426 149.115,307.467 148.687,307.318 147.400 C 307.044 145.022,306.789 144.519,306.828 146.433 M257.852 146.500 C 257.515 147.756,257.542 149.517,257.900 149.735 C 258.065 149.835,258.215 148.946,258.232 147.759 C 258.268 145.371,258.208 145.172,257.852 146.500 M213.800 147.600 C 214.659 148.480,215.452 149.200,215.562 149.200 C 215.672 149.200,215.059 148.480,214.200 147.600 C 213.341 146.720,212.548 146.000,212.438 146.000 C 212.328 146.000,212.941 146.720,213.800 147.600 M165.549 147.865 C 165.247 148.230,164.460 148.860,163.800 149.263 C 163.140 149.667,162.828 149.998,163.106 149.999 C 163.608 150.000,166.829 147.232,166.349 147.211 C 166.211 147.205,165.851 147.499,165.549 147.865 M159.784 148.889 C 160.453 149.488,161.159 149.983,161.354 149.989 C 161.549 149.995,161.189 149.608,160.554 149.128 C 158.781 147.789,158.438 147.683,159.784 148.889 M307.623 152.033 C 307.636 153.225,307.797 154.920,307.982 155.800 C 308.210 156.888,308.249 156.248,308.103 153.800 C 307.862 149.751,307.588 148.743,307.623 152.033 M216.446 151.400 C 216.453 151.620,216.806 152.520,217.229 153.400 C 217.652 154.280,217.886 154.550,217.749 154.000 C 217.467 152.867,216.425 150.788,216.446 151.400 M245.111 155.893 C 246.051 155.978,247.491 155.977,248.311 155.891 C 249.130 155.805,248.360 155.736,246.600 155.737 C 244.840 155.739,244.170 155.809,245.111 155.893 M251.105 156.283 C 251.602 156.379,252.322 156.375,252.705 156.275 C 253.087 156.175,252.680 156.096,251.800 156.101 C 250.920 156.105,250.607 156.187,251.105 156.283 M255.699 157.378 C 256.303 157.693,257.023 158.068,257.299 158.210 C 257.574 158.353,257.350 158.098,256.800 157.644 C 256.250 157.189,255.530 156.815,255.200 156.811 C 254.870 156.808,255.094 157.063,255.699 157.378 M238.614 159.435 C 238.241 160.004,238.005 160.538,238.089 160.622 C 238.173 160.707,238.558 160.241,238.944 159.588 C 239.806 158.128,239.548 158.009,238.614 159.435 M258.606 159.312 C 258.992 159.924,259.409 160.324,259.532 160.201 C 259.655 160.078,259.339 159.578,258.830 159.089 L 257.904 158.200 258.606 159.312 M218.998 164.108 C 218.997 166.784,219.111 168.440,219.251 167.787 C 219.595 166.182,219.609 160.764,219.272 159.920 C 219.122 159.546,218.999 161.431,218.998 164.108 M130.681 160.808 C 131.165 161.360,132.023 162.798,132.587 164.005 C 133.151 165.212,133.497 165.750,133.355 165.200 C 132.926 163.533,131.740 161.446,130.743 160.603 L 129.800 159.806 130.681 160.808 M118.446 165.267 C 118.421 165.634,118.296 166.264,118.170 166.667 C 117.952 167.362,117.963 167.363,118.397 166.687 C 118.648 166.296,118.773 165.666,118.673 165.287 C 118.511 164.668,118.488 164.666,118.446 165.267 M262.244 167.400 C 262.573 168.871,262.802 169.190,262.794 168.167 C 262.791 167.745,262.605 167.130,262.382 166.800 C 262.085 166.362,262.048 166.524,262.244 167.400 M117.369 169.426 C 117.222 170.211,117.258 171.204,117.451 171.633 C 117.704 172.199,117.806 171.807,117.821 170.207 C 117.846 167.637,117.739 167.452,117.369 169.426 M150.400 169.200 C 148.763 169.454,148.727 169.483,150.000 169.510 C 150.770 169.527,152.210 169.397,153.200 169.220 C 155.597 168.794,153.128 168.776,150.400 169.200 M263.088 172.200 C 263.314 176.358,263.536 176.946,263.540 173.400 C 263.542 171.860,263.402 170.240,263.228 169.800 C 263.054 169.357,262.991 170.427,263.088 172.200 M142.095 169.866 C 141.818 169.978,141.403 170.459,141.173 170.935 C 140.763 171.786,140.766 171.787,141.394 171.000 C 141.896 170.371,142.691 170.150,145.116 169.966 L 148.200 169.732 145.400 169.698 C 143.860 169.679,142.373 169.755,142.095 169.866 M308.093 172.000 C 308.093 172.770,308.175 173.085,308.276 172.700 C 308.376 172.315,308.376 171.685,308.276 171.300 C 308.175 170.915,308.093 171.230,308.093 172.000 M233.029 173.429 C 232.881 174.015,232.838 174.572,232.932 174.666 C 233.027 174.760,233.224 174.358,233.371 173.771 C 233.519 173.185,233.562 172.628,233.468 172.534 C 233.373 172.440,233.176 172.842,233.029 173.429 M307.724 175.800 C 307.726 177.120,307.801 177.612,307.890 176.893 C 307.979 176.174,307.977 175.094,307.886 174.493 C 307.795 173.892,307.722 174.480,307.724 175.800 M140.406 176.030 C 140.399 176.802,142.037 178.402,142.826 178.394 C 143.142 178.391,142.954 178.162,142.408 177.886 C 141.862 177.610,141.190 176.938,140.914 176.392 C 140.606 175.783,140.410 175.644,140.406 176.030 M214.200 177.476 C 213.100 178.487,212.740 178.947,213.400 178.497 C 214.524 177.730,216.744 175.578,216.370 175.618 C 216.276 175.628,215.300 176.464,214.200 177.476 M143.600 178.557 C 143.600 178.757,148.777 181.208,149.145 181.182 C 149.466 181.160,146.627 179.655,144.900 178.933 C 144.185 178.634,143.600 178.465,143.600 178.557 M155.578 180.300 L 154.200 181.800 155.700 180.422 C 156.525 179.663,157.200 178.988,157.200 178.922 C 157.200 178.616,156.862 178.904,155.578 180.300 M307.056 179.684 C 306.921 180.188,306.830 181.140,306.853 181.800 C 306.881 182.628,306.997 182.384,307.226 181.013 C 307.576 178.923,307.474 178.126,307.056 179.684 M280.500 180.778 C 280.005 181.191,279.600 181.666,279.600 181.834 C 279.600 182.002,280.059 181.708,280.621 181.180 C 281.490 180.364,281.703 180.309,282.052 180.810 C 282.394 181.303,282.435 181.305,282.305 180.825 C 282.072 179.960,281.500 179.945,280.500 180.778 M206.200 181.600 C 205.181 182.038,206.232 182.038,207.600 181.600 C 208.404 181.343,208.443 181.277,207.800 181.268 C 207.360 181.262,206.640 181.411,206.200 181.600 M258.000 182.460 C 257.230 183.135,256.962 183.505,257.404 183.281 C 258.135 182.911,259.947 181.178,259.562 181.216 C 259.473 181.225,258.770 181.785,258.000 182.460 M186.125 182.299 C 189.604 182.366,195.184 182.366,198.525 182.299 C 201.866 182.232,199.020 182.178,192.200 182.178 C 185.380 182.178,182.646 182.233,186.125 182.299 M279.041 183.036 C 278.562 184.286,279.869 184.867,281.200 183.994 C 281.629 183.714,281.436 183.671,280.526 183.845 C 279.376 184.066,279.273 184.007,279.472 183.245 C 279.730 182.261,279.400 182.101,279.041 183.036 M255.200 184.420 L 254.200 185.222 255.300 184.747 C 255.905 184.485,256.400 184.120,256.400 183.936 C 256.400 183.479,256.345 183.502,255.200 184.420 M245.466 188.018 C 245.942 188.200,246.842 188.204,247.466 188.026 C 248.426 187.753,248.292 187.702,246.600 187.695 C 245.119 187.688,244.825 187.772,245.466 188.018 M256.262 193.900 C 256.160 194.065,257.032 194.200,258.200 194.200 C 259.368 194.200,260.116 194.068,259.862 193.906 C 259.255 193.520,256.500 193.515,256.262 193.900 M185.628 196.200 C 185.628 196.420,185.886 197.050,186.200 197.600 C 186.514 198.150,186.772 198.420,186.772 198.200 C 186.772 197.980,186.514 197.350,186.200 196.800 C 185.886 196.250,185.628 195.980,185.628 196.200 M302.250 197.991 C 301.347 200.247,301.487 200.583,302.437 198.442 C 302.866 197.475,303.145 196.612,303.058 196.525 C 302.971 196.438,302.608 197.098,302.250 197.991 M265.600 196.910 C 265.600 197.001,266.545 197.856,267.700 198.812 C 268.895 199.800,269.369 200.069,268.800 199.435 C 267.814 198.337,265.600 196.590,265.600 196.910 M186.812 199.600 C 186.812 199.930,186.987 200.470,187.200 200.800 C 187.545 201.333,187.588 201.333,187.588 200.800 C 187.588 200.470,187.413 199.930,187.200 199.600 C 186.855 199.067,186.812 199.067,186.812 199.600 M132.070 201.222 C 131.558 201.870,131.288 202.390,131.470 202.378 C 131.651 202.366,132.219 201.826,132.730 201.178 C 133.242 200.530,133.512 200.010,133.330 200.022 C 133.149 200.034,132.581 200.574,132.070 201.222 M270.281 201.761 C 270.677 202.289,271.057 202.667,271.128 202.600 C 271.338 202.399,270.234 200.800,269.885 200.800 C 269.708 200.800,269.886 201.232,270.281 201.761 M136.533 203.029 C 136.281 203.563,136.226 204.000,136.411 204.000 C 136.758 204.000,137.381 202.447,137.132 202.199 C 137.055 202.122,136.785 202.495,136.533 203.029 M187.701 204.200 C 187.705 205.080,187.787 205.393,187.883 204.895 C 187.979 204.398,187.975 203.678,187.875 203.295 C 187.775 202.913,187.696 203.320,187.701 204.200 M173.467 203.867 C 172.814 204.519,173.259 206.312,174.300 207.230 L 175.400 208.200 174.451 207.122 C 173.760 206.337,173.551 205.713,173.682 204.822 C 173.876 203.503,173.867 203.466,173.467 203.867 M186.650 206.850 C 185.727 207.928,186.050 208.250,187.000 207.200 C 187.401 206.757,187.645 206.312,187.543 206.210 C 187.441 206.107,187.039 206.396,186.650 206.850 M219.220 208.176 C 218.957 208.493,218.818 209.258,218.911 209.876 C 219.071 210.942,219.083 210.932,219.140 209.687 C 219.184 208.732,219.445 208.276,220.100 208.012 C 220.709 207.768,220.790 207.643,220.349 207.625 C 219.991 207.611,219.483 207.859,219.220 208.176 M271.450 208.850 C 271.309 209.553,271.269 210.202,271.359 210.292 C 271.450 210.383,271.648 209.891,271.800 209.200 C 271.952 208.509,271.993 207.859,271.891 207.758 C 271.789 207.656,271.591 208.147,271.450 208.850 M242.000 212.510 C 242.000 213.083,242.187 213.668,242.416 213.810 C 242.689 213.979,242.738 213.677,242.560 212.934 C 242.192 211.401,242.000 211.256,242.000 212.510 M290.981 216.100 L 289.400 217.800 291.100 216.219 C 292.035 215.349,292.800 214.584,292.800 214.519 C 292.800 214.216,292.452 214.519,290.981 216.100 M127.862 216.331 C 127.498 216.734,127.215 217.499,127.234 218.031 C 127.267 218.949,127.286 218.941,127.607 217.874 C 127.792 217.255,128.159 216.490,128.421 216.174 C 129.116 215.337,128.641 215.470,127.862 216.331 M166.124 217.800 C 166.126 219.120,166.201 219.612,166.290 218.893 C 166.379 218.174,166.377 217.094,166.286 216.493 C 166.195 215.892,166.122 216.480,166.124 217.800 M203.800 217.200 C 204.659 218.080,205.452 218.800,205.562 218.800 C 205.672 218.800,205.059 218.080,204.200 217.200 C 203.341 216.320,202.548 215.600,202.438 215.600 C 202.328 215.600,202.941 216.320,203.800 217.200 M141.800 218.000 C 141.800 218.838,141.935 219.440,142.100 219.338 C 142.265 219.236,142.400 218.634,142.400 218.000 C 142.400 217.366,142.265 216.764,142.100 216.662 C 141.935 216.560,141.800 217.162,141.800 218.000 M196.122 217.429 L 195.000 218.458 196.300 217.554 C 197.015 217.057,197.600 216.593,197.600 216.525 C 197.600 216.209,197.158 216.480,196.122 217.429 M243.600 217.182 C 243.600 217.563,245.960 219.777,246.145 219.571 C 246.230 219.477,245.692 218.840,244.949 218.157 C 244.207 217.473,243.600 217.034,243.600 217.182 M266.800 218.800 C 266.250 219.230,265.997 219.586,266.238 219.591 C 266.479 219.596,267.002 219.240,267.400 218.800 C 268.312 217.792,268.088 217.792,266.800 218.800 M194.557 219.831 C 194.414 220.398,194.464 221.793,194.667 222.931 L 195.037 225.000 195.019 221.900 C 194.998 218.521,194.945 218.283,194.557 219.831 M168.600 220.000 C 168.096 220.217,168.022 220.344,168.400 220.344 C 168.730 220.344,169.360 220.189,169.800 220.000 C 170.304 219.783,170.378 219.656,170.000 219.656 C 169.670 219.656,169.040 219.811,168.600 220.000 M249.200 219.997 C 251.475 220.332,256.661 220.515,256.367 220.250 C 256.275 220.167,254.130 220.003,251.600 219.886 C 248.482 219.741,247.709 219.777,249.200 219.997 M264.000 220.000 C 263.176 220.264,263.141 220.326,263.800 220.354 C 264.240 220.373,264.870 220.213,265.200 220.000 C 265.901 219.547,265.414 219.547,264.000 220.000 M127.234 220.678 C 127.215 221.160,127.605 221.979,128.100 222.497 C 128.595 223.015,128.765 223.135,128.477 222.763 C 128.189 222.390,127.800 221.572,127.611 220.943 C 127.327 219.995,127.263 219.950,127.234 220.678 M140.744 220.700 C 139.593 222.089,139.106 222.800,139.304 222.800 C 139.414 222.800,139.986 222.170,140.573 221.400 C 141.663 219.971,141.795 219.432,140.744 220.700 M283.696 223.027 C 282.318 224.222,281.328 225.200,281.496 225.199 C 281.663 225.199,282.880 224.217,284.200 223.018 C 287.301 220.199,286.946 220.206,283.696 223.027 M137.400 225.043 C 136.857 225.462,136.092 225.596,135.021 225.458 C 133.978 225.324,133.638 225.379,134.021 225.621 C 134.987 226.233,136.657 226.045,137.656 225.213 C 138.769 224.286,138.561 224.147,137.400 225.043 M278.090 227.366 C 275.654 229.036,274.381 230.073,275.600 229.394 C 276.875 228.685,280.800 225.961,280.800 225.785 C 280.800 225.510,280.798 225.511,278.090 227.366 M195.206 227.033 C 195.209 227.455,195.395 228.070,195.618 228.400 C 195.915 228.838,195.952 228.676,195.756 227.800 C 195.427 226.329,195.198 226.010,195.206 227.033 M196.012 230.264 C 195.997 230.826,198.272 232.801,198.931 232.799 C 199.189 232.798,198.831 232.450,198.135 232.026 C 197.439 231.602,196.680 230.927,196.447 230.527 C 196.215 230.127,196.019 230.009,196.012 230.264 M270.700 231.829 C 269.205 232.640,269.296 232.978,270.800 232.200 C 271.460 231.859,272.000 231.494,272.000 231.390 C 272.000 231.132,271.957 231.147,270.700 231.829 M201.400 232.800 L 199.400 233.074 201.200 233.131 C 202.190 233.162,203.270 233.013,203.600 232.800 C 203.930 232.587,204.020 232.438,203.800 232.469 C 203.580 232.500,202.500 232.649,201.400 232.800 M155.631 233.901 C 156.164 234.557,156.649 235.054,156.709 235.005 C 156.996 234.769,156.294 233.726,155.523 233.245 C 154.721 232.744,154.729 232.789,155.631 233.901 M267.200 233.600 C 266.430 234.022,265.980 234.366,266.200 234.366 C 266.420 234.366,267.230 234.022,268.000 233.600 C 268.770 233.178,269.220 232.834,269.000 232.834 C 268.780 232.834,267.970 233.178,267.200 233.600 M154.899 237.590 C 154.640 238.005,153.927 238.420,153.314 238.512 L 152.200 238.680 153.404 238.740 C 154.467 238.793,156.025 237.492,155.513 236.979 C 155.434 236.901,155.158 237.176,154.899 237.590 M254.476 238.470 C 253.087 238.918,252.022 239.355,252.109 239.442 C 252.293 239.626,257.600 238.004,257.600 237.763 C 257.600 237.504,257.159 237.604,254.476 238.470 M249.600 240.018 C 249.162 240.315,249.324 240.352,250.200 240.156 C 251.671 239.827,251.990 239.598,250.967 239.606 C 250.545 239.609,249.930 239.795,249.600 240.018 M246.400 240.818 C 245.962 241.115,246.124 241.152,247.000 240.956 C 248.471 240.627,248.790 240.398,247.767 240.406 C 247.345 240.409,246.730 240.595,246.400 240.818 M238.800 242.395 C 238.391 242.655,238.710 242.699,239.800 242.532 C 241.777 242.229,242.114 241.998,240.567 242.006 C 239.925 242.009,239.130 242.184,238.800 242.395 M234.200 243.210 C 233.666 243.447,233.998 243.486,235.200 243.327 C 236.190 243.196,237.075 243.024,237.167 242.944 C 237.514 242.643,234.964 242.872,234.200 243.210 M228.200 244.020 C 227.661 244.265,228.054 244.305,229.400 244.141 C 230.500 244.007,231.475 243.831,231.567 243.749 C 231.917 243.436,228.961 243.674,228.200 244.020 M219.400 244.800 L 217.800 245.086 219.200 245.104 C 219.970 245.113,221.590 244.984,222.800 244.817 L 225.000 244.513 223.000 244.513 C 221.900 244.513,220.280 244.642,219.400 244.800 M188.674 245.499 C 192.894 245.564,199.914 245.564,204.274 245.500 C 208.633 245.435,205.180 245.382,196.600 245.382 C 188.020 245.382,184.453 245.435,188.674 245.499 M180.892 278.800 C 180.835 296.950,180.696 312.250,180.583 312.800 L 180.377 313.800 180.791 312.859 C 181.068 312.229,181.170 300.974,181.100 278.859 L 180.995 245.800 180.892 278.800 M132.056 247.613 C 131.536 248.046,131.289 248.400,131.507 248.400 C 131.724 248.400,132.133 248.122,132.415 247.782 C 132.697 247.442,133.179 247.260,133.485 247.377 C 133.791 247.495,133.932 247.413,133.797 247.195 C 133.453 246.638,133.134 246.715,132.056 247.613 M135.350 250.116 C 135.318 251.645,135.348 251.700,135.685 250.715 C 135.890 250.117,135.906 249.361,135.721 249.031 C 135.496 248.628,135.374 248.985,135.350 250.116 M155.235 260.100 C 155.328 260.155,156.033 260.740,156.802 261.400 L 158.200 262.600 157.025 261.300 C 156.379 260.585,155.674 260.000,155.458 260.000 C 155.243 260.000,155.143 260.045,155.235 260.100 M122.663 261.900 C 122.562 262.065,123.525 262.200,124.802 262.200 C 126.079 262.200,127.041 262.065,126.938 261.900 C 126.836 261.735,125.874 261.600,124.800 261.600 C 123.726 261.600,122.764 261.735,122.663 261.900 M138.806 264.033 C 138.809 264.785,138.977 265.661,139.179 265.979 C 139.416 266.354,139.465 265.930,139.318 264.779 C 139.035 262.570,138.798 262.225,138.806 264.033 M158.287 264.866 C 158.529 267.797,158.732 268.195,158.762 265.800 C 158.776 264.700,158.635 263.560,158.449 263.266 C 158.251 262.954,158.184 263.618,158.287 264.866 M128.800 263.333 C 128.800 263.443,129.520 264.103,130.400 264.800 C 131.280 265.497,132.000 265.977,132.000 265.867 C 132.000 265.757,131.280 265.097,130.400 264.400 C 129.520 263.703,128.800 263.223,128.800 263.333 M139.600 266.953 C 139.600 267.382,140.790 269.600,141.021 269.600 C 141.131 269.600,140.923 269.015,140.559 268.300 C 139.817 266.840,139.600 266.536,139.600 266.953 M156.400 270.764 C 155.630 271.514,155.362 271.935,155.804 271.701 C 156.679 271.237,158.230 269.655,157.964 269.498 C 157.874 269.444,157.170 270.014,156.400 270.764 M131.867 271.667 C 131.505 272.588,131.274 273.407,131.354 273.488 C 131.434 273.568,131.800 272.883,132.167 271.967 C 132.533 271.050,132.764 270.231,132.679 270.146 C 132.594 270.061,132.229 270.745,131.867 271.667 M116.605 273.400 C 116.906 274.962,118.085 276.568,119.042 276.721 C 119.591 276.808,119.526 276.695,118.809 276.313 C 118.251 276.016,117.502 275.001,117.096 273.992 C 116.595 272.748,116.445 272.567,116.605 273.400 M145.505 273.883 C 146.002 273.979,146.722 273.975,147.105 273.875 C 147.487 273.775,147.080 273.696,146.200 273.701 C 145.320 273.705,145.007 273.787,145.505 273.883 M129.200 276.461 C 128.300 277.212,127.819 277.277,124.400 277.114 C 122.310 277.014,121.050 277.064,121.600 277.226 C 124.125 277.969,128.306 277.643,129.478 276.613 C 130.838 275.416,130.605 275.288,129.200 276.461 M157.754 290.976 C 157.632 291.292,157.731 291.877,157.972 292.276 C 158.338 292.880,158.370 292.818,158.162 291.900 C 157.808 290.335,160.613 290.291,162.762 291.829 L 164.200 292.858 162.815 291.629 C 161.261 290.250,158.185 289.853,157.754 290.976 M122.675 295.522 C 121.367 296.887,121.283 298.601,122.456 300.000 L 123.295 301.000 122.647 299.914 C 121.179 297.450,122.674 294.404,125.078 294.963 C 125.906 295.156,126.043 295.118,125.600 294.818 C 124.608 294.147,123.807 294.340,122.675 295.522 M159.824 294.987 C 160.718 295.664,161.455 295.758,161.777 295.237 C 161.900 295.038,161.661 294.964,161.246 295.072 C 160.830 295.181,160.369 295.074,160.222 294.835 C 160.074 294.596,159.749 294.400,159.500 294.400 C 159.251 294.400,159.396 294.664,159.824 294.987 M128.600 298.600 C 128.600 299.548,128.735 300.240,128.900 300.138 C 129.065 300.036,129.200 299.344,129.200 298.600 C 129.200 297.856,129.065 297.164,128.900 297.062 C 128.735 296.960,128.600 297.652,128.600 298.600 M165.300 299.865 C 165.025 299.976,164.800 300.233,164.800 300.437 C 164.800 300.640,165.152 300.587,165.583 300.318 C 166.449 299.777,168.400 301.155,168.400 302.308 C 168.400 303.402,167.043 305.225,166.409 304.984 C 165.908 304.794,165.893 304.846,166.322 305.276 C 166.751 305.708,166.981 305.624,167.623 304.800 C 168.986 303.051,169.023 302.076,167.775 300.774 C 166.663 299.614,166.276 299.471,165.300 299.865 M98.021 320.021 C 98.555 320.360,101.542 320.581,101.167 320.255 C 101.075 320.175,100.199 320.008,99.221 319.882 C 98.070 319.735,97.646 319.784,98.021 320.021 M173.000 320.000 L 171.400 320.286 172.800 320.337 C 173.570 320.365,174.470 320.213,174.800 320.000 C 175.455 319.577,175.362 319.577,173.000 320.000 " stroke="none" fill="#747474" fill-rule="evenodd"></path><path id="path4" d="M126.900 79.900 C 141.585 79.958,165.615 79.958,180.300 79.900 C 194.985 79.842,182.970 79.794,153.600 79.794 C 124.230 79.794,112.215 79.842,126.900 79.900 M161.900 141.882 C 162.395 141.978,163.205 141.978,163.700 141.882 C 164.195 141.787,163.790 141.709,162.800 141.709 C 161.810 141.709,161.405 141.787,161.900 141.882 M236.446 142.620 C 236.421 143.071,236.221 143.657,236.001 143.921 C 235.782 144.186,235.890 144.153,236.240 143.849 C 236.590 143.544,236.790 142.958,236.685 142.547 C 236.512 141.874,236.488 141.881,236.446 142.620 M185.925 143.899 C 189.293 143.966,194.693 143.966,197.925 143.899 C 201.156 143.832,198.400 143.777,191.800 143.777 C 185.200 143.777,182.556 143.832,185.925 143.899 M308.553 164.200 C 308.553 166.840,308.618 167.868,308.697 166.484 C 308.775 165.101,308.774 162.941,308.695 161.684 C 308.616 160.428,308.552 161.560,308.553 164.200 M144.500 170.276 C 144.885 170.376,145.515 170.376,145.900 170.276 C 146.285 170.175,145.970 170.093,145.200 170.093 C 144.430 170.093,144.115 170.175,144.500 170.276 M271.701 206.200 C 271.705 207.080,271.787 207.393,271.883 206.895 C 271.979 206.398,271.975 205.678,271.875 205.295 C 271.775 204.913,271.696 205.320,271.701 206.200 M219.293 209.600 C 219.293 210.370,219.375 210.685,219.476 210.300 C 219.576 209.915,219.576 209.285,219.476 208.900 C 219.375 208.515,219.293 208.830,219.293 209.600 M194.901 221.400 C 194.905 222.280,194.987 222.593,195.083 222.095 C 195.179 221.598,195.175 220.878,195.075 220.495 C 194.975 220.113,194.896 220.520,194.901 221.400 M212.905 245.487 C 213.514 245.579,214.414 245.577,214.905 245.482 C 215.397 245.387,214.900 245.311,213.800 245.314 C 212.700 245.317,212.297 245.395,212.905 245.487 " stroke="none" fill="#848484" fill-rule="evenodd"></path></g></svg>